<svg width="0" height="0" class="hidden">
  <symbol xmlns="http://www.w3.org/2000/svg" viewBox="0 0 14.968 30.19" id="badge">
    <path d="M14.955 16.45a7.861 7.861 0 0 0-6.648-7.52v-.27a2.256 2.256 0 0 0-1.2-1.92L3.59 5.02a.97.97 0 0 1-.433-.7V2.98a.236.236 0 0 1 .225-.23h5.487v.48a1.832 1.832 0 0 0 1.832 1.83h1.407a1.833 1.833 0 0 0 1.831-1.83V1.82a1.833 1.833 0 0 0-1.831-1.83h-1.407a1.829 1.829 0 0 0-1.774 1.4H3.382a1.589 1.589 0 0 0-1.589 1.59v1.34a2.249 2.249 0 0 0 1.195 1.92l3.517 1.73a.977.977 0 0 1 .434.69v.25a7.824 7.824 0 0 0-6.936 7.54h-.017v10.99a2.742 2.742 0 0 0 2.738 2.74h9.513a2.742 2.742 0 0 0 2.736-2.74V16.45h-.017zM10.237 1.82a.472.472 0 0 1 .468-.46h1.407a.473.473 0 0 1 .468.46v1.41a.482.482 0 0 1-.468.47h-1.407a.48.48 0 0 1-.468-.47V1.82zm-2 12.85a.478.478 0 0 1 .465.47v1.41a.469.469 0 0 1-.465.46H6.828a.469.469 0 0 1-.466-.46v-1.41a.478.478 0 0 1 .466-.47h1.409zm5.374 3.14v9.63a1.4 1.4 0 0 1-1.372 1.38H2.731a1.4 1.4 0 0 1-1.373-1.38v-9.63h.007v-.68c0-.11-.009-.15-.007-.15a6.516 6.516 0 0 1 5.588-6.7v3.03h-.118a1.83 1.83 0 0 0-1.83 1.83v1.41a1.837 1.837 0 0 0 1.83 1.83h1.409a1.838 1.838 0 0 0 1.829-1.83v-1.41a1.838 1.838 0 0 0-1.756-1.83v-2.99a6.544 6.544 0 0 1 5.3 6.66 1.273 1.273 0 0 0-.007.15v.68h.006z"
      fill="#2c3233" fill-rule="evenodd"></path>
  </symbol>
  <symbol xmlns="http://www.w3.org/2000/svg" viewBox="0 0 29.531 27.5" id="briefcase">
    <path d="M29.539 8.22a3.425 3.425 0 0 0-3.176-3.61h-5.957V1.95a1.968 1.968 0 0 0-1.957-1.96h-7.367a1.968 1.968 0 0 0-1.959 1.96v2.66H3.167A3.422 3.422 0 0 0-.008 8.22v3.46a.4.4 0 0 0 0 .06.473.473 0 0 0 0 .07 1.94 1.94 0 0 0 .054.45 3.348 3.348 0 0 0 1.383 1.86v9.01a4.37 4.37 0 0 0 4.359 4.36h17.954a4.372 4.372 0 0 0 4.361-4.36v-9.01a3.345 3.345 0 0 0 1.379-1.86 1.836 1.836 0 0 0 .055-.45v-.13zM10.354 1.95a.741.741 0 0 1 .728-.73h7.367a.743.743 0 0 1 .729.73v2.66h-8.826zM26.87 14.86v8.27a3.149 3.149 0 0 1-3.128 3.13H5.788a3.151 3.151 0 0 1-3.129-3.13v-8.27c.042.02.1.04.138.06.238.11.484.22.744.32a27.752 27.752 0 0 0 7.556 1.58v1.31a1.547 1.547 0 0 0 1.538 1.54h4.258a1.548 1.548 0 0 0 1.539-1.54v-1.31a38.72 38.72 0 0 0 3.732-.51 21.618 21.618 0 0 0 3.824-1.07c.263-.1.508-.21.75-.33.042-.02.09-.03.137-.05zm-14.543.81v-.57a.321.321 0 0 1 .308-.31h4.258a.32.32 0 0 1 .308.31v3.03a.311.311 0 0 1-.308.3h-4.258a.312.312 0 0 1-.308-.3v-2.46zm14.036-9.83a2.223 2.223 0 0 1 1.944 2.38v3.44a.518.518 0 0 0 0 .08.678.678 0 0 0 0 .09 1.441 1.441 0 0 1-.024.17 2.85 2.85 0 0 1-1.539 1.53 1.776 1.776 0 0 1-.212.11c-.069.04-.141.08-.217.12s-.184.08-.28.13c-.159.07-.322.14-.5.21a22.555 22.555 0 0 1-4.994 1.23c-.673.1-1.379.18-2.109.25v-.48a1.542 1.542 0 0 0-1.539-1.54h-4.258a1.541 1.541 0 0 0-1.538 1.54v.48c-.593-.05-1.167-.12-1.724-.19a24 24 0 0 1-5.379-1.29c-.18-.07-.348-.14-.51-.22-.089-.04-.173-.08-.254-.12s-.168-.08-.248-.12-.129-.07-.191-.1A2.869 2.869 0 0 1 1.246 12a1.372 1.372 0 0 1-.024-.17l.006-.06v-.07c0-.02 0-.05-.006-.06V8.22a2.22 2.22 0 0 1 1.944-2.38h23.2z"
      fill="#2c3233" fill-rule="evenodd"></path>
  </symbol>
  <symbol xmlns="http://www.w3.org/2000/svg" viewBox="0 0 28.75 25.37" id="heart">
    <path d="M13.935 24.94a.745.745 0 0 0-.06-.06l.232-.22-.234.22c-3.846-3.85-7.275-7.19-9.764-10.04C1.634 11.99.025 9.7-.012 7.59a1.341 1.341 0 0 1 0-.16A7.452 7.452 0 0 1 7.447.01a7.443 7.443 0 0 1 6.746 4.3l.166.36.006-.01.162-.35a7.452 7.452 0 0 1 6.752-4.3 7.446 7.446 0 0 1 7.457 7.42v.16c-.038 2.11-1.65 4.4-4.123 7.26-2.487 2.83-5.907 6.17-9.749 10.01a.146.146 0 0 0-.027.03l-.433.47-.477-.42zM1.29 7.46v.13c-.038 1.36 1.349 3.63 3.8 6.4 2.348 2.68 5.61 5.88 9.282 9.54 3.676-3.67 6.931-6.86 9.275-9.54 2.451-2.76 3.84-5.03 3.8-6.4v-.13a6.168 6.168 0 0 0-6.158-6.16 6.168 6.168 0 0 0-5.577 3.56l-.161.35-.093.2-.021.03a1.252 1.252 0 0 1-1.064.59 1.282 1.282 0 0 1-1.119-.68 1.353 1.353 0 0 1-.063-.13l-.166-.36A6.147 6.147 0 0 0 7.459 1.3a6.169 6.169 0 0 0-6.163 6.16zm13.11-2.7a.035.035 0 0 0-.008-.02l.008.02z"
      fill="#2c3233" fill-rule="evenodd"></path>
  </symbol>
  <symbol xmlns="http://www.w3.org/2000/svg" viewBox="0 0 26 26" id="pencil">
    <path d="M22.326 4.6l2.189 2.19a.685.685 0 0 1 0 .96L10.582 21.68l.918.92L25.434 8.67a2 2 0 0 0 .576-1.4 1.955 1.955 0 0 0-.577-1.39l-5.3-5.3a1.974 1.974 0 0 0-2.8 0L3.404 14.51l.918.92L18.253 1.5a.672.672 0 0 1 .957 0l2.19 2.19L8.194 16.9l.919.92zM2.599 18.08a1.4 1.4 0 0 0-1.009-.48 1.045 1.045 0 0 0-.844.43 1.6 1.6 0 0 0-.283.83l-.45 5.25a1.492 1.492 0 0 0-.008.17 1.724 1.724 0 0 0 .5 1.23 1.748 1.748 0 0 0 1.226.49h.158l5.268-.45a1.566 1.566 0 0 0 .828-.29 1.037 1.037 0 0 0 .433-.84 1.462 1.462 0 0 0-.481-1.01z"
      fill="#2c3233" fill-rule="evenodd"></path>
  </symbol>
</svg>