<svg xmlns="http://www.w3.org/2000/svg" xmlns:xlink="http://www.w3.org/1999/xlink" viewBox="0 0 1440 765" preserveAspectRatio="none"><defs><linearGradient id="New_Gradient_Swatch_4" x1="117.07" y1="-136.1" x2="1319.76" y2="898.38" gradientUnits="userSpaceOnUse"><stop offset="0" stop-color="#15eded"/><stop offset="1" stop-color="#029cf5"/></linearGradient></defs><title>download-bg</title><g id="Layer_2" data-name="Layer 2"><g id="Layer_1-2" data-name="Layer 1"><rect width="1440" height="765" style="fill:url(#New_Gradient_Swatch_4)"/><path d="M1359.12,141.68c-72.91-.4-79.42,148.57-225.33,150.18C969,293.67,991.12,367.43,884.46,367h-321c-106.67.4-84.5-203.66-249.33-205.47C168.25,160,161.75,233.09,88.83,233.48c-26.62.15-58.3.91-88.83-8.69V765H1440V180C1412,164.67,1383.44,141.81,1359.12,141.68Z" style="fill:#fff;opacity:0.1"/><path d="M982.86,500.19l.93.35,1.44-3.73-.93-.37ZM980,507.67l.93.36c.48-1.25,1-2.49,1.43-3.75l-.93-.35C980.94,505.18,980.47,506.43,980,507.67Zm-5.72,15,.93.36,1.44-3.75-.94-.35C975.23,520.15,974.75,521.4,974.27,522.65Zm18.89-48.57h0ZM1052.61,375l.7.72c1-.92,1.92-1.84,2.89-2.74l-.67-.74C1054.54,373.16,1053.57,374.08,1052.61,375Zm-61,102.79.93.37c.5-1.23,1-2.47,1.51-3.71l-.93-.37C992.65,475.32,992.15,476.56,991.65,477.8Zm-1.5,3.72Zm-1.48,3.72.93.37,1.48-3.72-.93-.37Zm-2.92,7.47.93.36c.48-1.24,1-2.48,1.45-3.73l-.93-.37C986.71,490.22,986.23,491.46,985.75,492.71ZM956,567.09l.91.42c.55-1.21,1.11-2.43,1.66-3.66l-.92-.41C957.12,564.67,956.56,565.88,956,567.09Zm15.38-37,.93.36c.48-1.24,1-2.48,1.45-3.73l-.94-.36Zm-18.81,44.19.9.44c.58-1.19,1.16-2.39,1.74-3.61l-.9-.43C953.74,571.92,953.16,573.13,952.58,574.31Zm8.29-18.2c-.52,1.23-1,2.46-1.59,3.67l.92.4c.53-1.21,1.06-2.44,1.59-3.68l-.92-.39Zm7.6-18.53.93.37c.48-1.24,1-2.48,1.46-3.73l-.93-.36Zm-3,7.44.93.37c.5-1.23,1-2.47,1.49-3.71l-.92-.37ZM949,581.45l.89.46c.62-1.17,1.23-2.36,1.84-3.56l-.89-.46C950.19,579.09,949.58,580.28,949,581.45Zm13.48-29,.92.39,1.54-3.7-.93-.39C963.46,550,963,551.2,962.44,552.42Zm64.94-146.3.83.55c.73-1.12,1.47-2.22,2.22-3.32l-.82-.56C1028.85,403.89,1028.11,405,1027.38,406.12Zm4.52-6.63.81.58c.78-1.09,1.56-2.17,2.35-3.23l-.81-.6C1033.46,397.31,1032.68,398.4,1031.9,399.49Zm-8.82,13.41.85.52c.7-1.14,1.4-2.27,2.11-3.39l-.84-.54C1024.48,410.62,1023.78,411.75,1023.08,412.9Zm18.62-26.12.76.65q1.29-1.53,2.61-3l-.75-.66C1043.44,384.74,1042.56,385.75,1041.7,386.78Zm5.31-6,.73.68c.91-1,1.82-1.94,2.75-2.89l-.72-.7Q1048.38,379.29,1047,380.76Zm-7.86,9.12c-.84,1-1.66,2.09-2.48,3.16l.79.61c.81-1.06,1.64-2.11,2.47-3.14l-.78-.63ZM1021,416.33c-.68,1.15-1.36,2.31-2,3.47l.86.5c.67-1.16,1.34-2.31,2-3.46l-.86-.5Zm-7.81,14c-.62,1.18-1.24,2.37-1.85,3.56l.89.46c.61-1.19,1.22-2.37,1.84-3.55l-.88-.47Zm-13.79,28.94ZM997.82,463l.92.39c.52-1.22,1-2.45,1.59-3.67l-.92-.4Zm3.21-7.35.91.41c.54-1.22,1.09-2.43,1.64-3.64l-.91-.42C1002.12,453.19,1001.57,454.4,1001,455.62Zm6.75-14.53.89.44,1.77-3.59-.89-.44C1009,438.69,1008.36,439.89,1007.78,441.09Zm-1.74,3.62c-.57,1.21-1.14,2.42-1.7,3.63l.9.42c.57-1.21,1.13-2.42,1.7-3.62l-.9-.43Zm-11.35,25.66.93.38c.51-1.24,1-2.47,1.55-3.7l-.92-.39Zm20.39-43.56.88.48,1.92-3.51-.87-.49C1016.36,424.46,1015.72,425.63,1015.08,426.81Zm-36.52,84.61c-.48,1.25-.95,2.5-1.43,3.74l.94.36c.47-1.25.95-2.5,1.43-3.75l-.94-.35ZM812.43,633.94h4v-1h-4Zm-8,0h4v-1h-4Zm-24,0h4v-1h-4Zm8,0h4v-1h-4Zm8,0h4v-1h-4Zm24,0h4v-1h-4Zm16,0h4v-1h-4Zm-8,0h4v-1h-4Zm16,0h4v-1h-4Zm-72,0h4v-1h-4Zm-48,0h4v-1h-4Zm16,0h4v-1h-4Zm-8,0h4v-1h-4Zm16,0h4v-1h-4Zm16,0h4v-1h-4Zm-8,0h4v-1h-4Zm96,0h4v-1h-4Zm94.65-49c-.65,1.18-1.3,2.34-2,3.49l.87.49c.66-1.15,1.31-2.32,2-3.5l-.87-.48Zm-32.76,39.35.54.84c1.12-.73,2.22-1.49,3.3-2.3l-.6-.8C916.5,622.85,915.42,623.61,914.32,624.32Zm-205.89,9.62h4v-1h-4ZM920.66,619.6l.65.77c1-.85,2-1.74,3-2.66l-.68-.73C922.65,617.88,921.67,618.76,920.66,619.6Zm22.44-27.7Zm-4.27,6.74c-.74,1.12-1.5,2.21-2.26,3.28l.81.58q1.15-1.62,2.28-3.3l-.83-.56ZM941,595.3l.84.54c.71-1.13,1.42-2.26,2.11-3.42l-.86-.52C942.41,593.05,941.71,594.18,941,595.3Zm-14.55,18.89.72.7q1.38-1.42,2.73-2.94l-.75-.67Q927.83,612.78,926.46,614.19Zm-58,19.75h4v-1h-4Zm8,0h4v-1h-4Zm-16,0h4v-1h-4Zm31.91-1.44.13,1c1.34-.17,2.66-.4,4-.67l-.21-1C895,632.11,893.66,632.32,892.34,632.5Zm7.72-1.61.28,1c1.29-.37,2.56-.79,3.8-1.27l-.35-.93C902.57,630.12,901.32,630.53,900.06,630.89Zm7.36-2.75.43.91c1.21-.57,2.4-1.17,3.57-1.82l-.48-.88C909.78,627,908.61,627.59,907.42,628.14Zm-22.12,4.8h-.87v1h.87c1.07,0,2.12,0,3.16-.09l-.06-1C887.38,632.91,886.35,632.94,885.3,632.94Zm48.91-27.81c-.82,1.07-1.64,2.11-2.47,3.12l.77.64c.84-1,1.67-2.08,2.49-3.15l-.79-.61Zm370.44-444,.88.48c.65-1.18,1.29-2.34,1.94-3.5l-.87-.49Q1305.63,159.32,1304.65,161.09Zm-1.9,3.53c-.63,1.17-1.25,2.36-1.88,3.55l.89.47c.62-1.2,1.25-2.38,1.87-3.54l-.88-.48Zm5.84-10.53.86.51c.68-1.17,1.35-2.32,2-3.45l-.86-.51C1309.94,151.77,1309.26,152.92,1308.59,154.09Zm-11.39,21.22.9.45c.6-1.2,1.21-2.39,1.82-3.57l-.89-.46C1298.42,172.91,1297.81,174.1,1297.2,175.31Zm-3.59,7.16.9.45c.59-1.2,1.19-2.4,1.79-3.58l-.9-.45ZM1321.89,134l.79.62q1.24-1.59,2.52-3.09l-.76-.65C1323.58,131.91,1322.74,133,1321.89,134Zm-11.27,16.62Zm-45.93,89,.87.49c.65-1.17,1.29-2.34,1.93-3.51l-.88-.48Zm52.44-99.12.82.57c.77-1.11,1.54-2.19,2.32-3.25l-.81-.59C1318.68,138.28,1317.9,139.38,1317.13,140.49Zm-44.91,85,.89.46c.61-1.19,1.23-2.38,1.83-3.56l-.89-.46C1273.45,223.16,1272.84,224.34,1272.22,225.53Zm17.85-35.86.89.44q.88-1.81,1.77-3.6l-.89-.44Zm-14.2,28.73.89.45c.61-1.19,1.21-2.38,1.81-3.58l-.9-.44Q1276.78,216.62,1275.87,218.4Zm-5.5,10.66-1.87,3.53.89.47,1.87-3.53-.89-.47Zm9.09-17.82.9.45c.6-1.2,1.19-2.4,1.78-3.59l-.9-.45C1280.65,208.85,1280.06,210,1279.46,211.24Zm7.08-14.37.9.43c.59-1.2,1.18-2.4,1.76-3.6l-.9-.44C1287.72,194.46,1287.13,195.66,1286.54,196.87Zm-3.53,7.19.9.44c.59-1.2,1.18-2.4,1.76-3.6l-.89-.44Zm29.71-56.85.85.53c.71-1.14,1.43-2.26,2.15-3.36l-.83-.55C1314.16,144.94,1313.44,146.06,1312.72,147.21Zm89.41-37.83.25,1c1.29-.34,2.58-.7,3.87-1.11l-.3-.95C1404.68,108.69,1403.4,109.05,1402.13,109.38Zm-7.77,1.62.16,1c1.31-.21,2.63-.45,4-.73l-.2-1C1397,110.55,1395.66,110.79,1394.36,111Zm15.35-4,.34.94c1.24-.46,2.49-1,3.73-1.5l-.39-.92C1412.16,106.05,1410.93,106.55,1409.71,107Zm17.49-9.24c-1.1.77-2.2,1.51-3.3,2.2l.53.85c1.11-.7,2.23-1.45,3.34-2.23l-.57-.82ZM1417,103.85l.45.9c1.18-.59,2.37-1.21,3.55-1.88l-.49-.87C1419.32,102.65,1418.15,103.27,1417,103.85Zm13.41-8.45.62.8c1-.81,2.08-1.65,3.12-2.53l-.65-.77C1432.45,93.78,1431.42,94.61,1430.39,95.4Zm-103.27,32.5.73.68c.92-1,1.85-1.93,2.78-2.83l-.69-.72C1329,126,1328.05,126.9,1327.12,127.9Zm63.3-16.35c-1.33.16-2.65.29-4,.4l.08,1c1.33-.11,2.66-.24,4-.4l-.12-1ZM1343,115.67q-1.8.87-3.54,1.92l.52.86a38.63,38.63,0,0,1,3.45-1.88l-.43-.9Zm-10,6.66.64.76c1-.87,2.06-1.68,3.11-2.45l-.59-.81C1335,120.61,1334,121.44,1332.93,122.33Zm13.76-8.21.34.94a32.83,32.83,0,0,1,3.75-1.1l-.23-1A37.11,37.11,0,0,0,1346.69,114.12Zm31.81-1.77,0,1c1.33,0,2.67-.08,4-.14l0-1C1381.15,112.27,1379.82,112.32,1378.5,112.35Zm-8,0,0,1,3.82,0h.19v-1h-.19C1373.05,112.39,1371.78,112.38,1370.52,112.36Zm-16,0,.11,1a33.44,33.44,0,0,1,3.76-.21h.14v-1h-.15A33,33,0,0,0,1354.5,112.31Zm8,.88,4,.1,0-1-4-.09ZM1198.85,318.71l.56.84q1.66-1.12,3.3-2.28l-.58-.82C1201.05,317.22,1200,318,1198.85,318.71Zm-51.56,19.8.15,1q2-.28,4-.63l-.18-1Q1149.29,338.23,1147.29,338.51Zm-7.91.89.08,1c1.34-.11,2.68-.24,4-.39l-.12-1C1142,339.16,1140.71,339.29,1139.38,339.4Zm121.37-92.82.87.51,2-3.49-.88-.5Q1261.75,244.86,1260.75,246.58Zm-137.32,94,.11,1q2-.24,4-.42l-.09-1C1126.07,340.29,1124.74,340.43,1123.43,340.59Zm10.34-.84-2.36.13.06,1c.78-.05,1.55-.09,2.34-.12l1.65-.08-.06-1Zm36.69-6.83.33.94c1.27-.44,2.52-.9,3.76-1.37l-.35-.94C1173,332,1171.72,332.48,1170.46,332.92Zm-7.59,2.36.26,1c1.3-.35,2.58-.73,3.85-1.13l-.3-.95C1165.42,334.55,1164.15,334.92,1162.87,335.28Zm-7.74,1.86.21,1c1.31-.27,2.62-.57,3.91-.88l-.24-1C1157.73,336.58,1156.44,336.87,1155.13,337.14Zm-90.4,27.35.61.8c1.05-.81,2.11-1.61,3.19-2.38l-.58-.81C1066.86,362.88,1065.79,363.68,1064.73,364.49Zm13.31-8.93.5.87c1.14-.67,2.3-1.32,3.48-1.94l-.47-.89C1080.36,354.24,1079.19,354.89,1078,355.56Zm-6.8,4.25.56.83q1.64-1.11,3.33-2.16l-.53-.85C1073.46,358.34,1072.35,359.06,1071.24,359.81Zm106.64-29.75.39.93c1.24-.53,2.46-1.07,3.67-1.62l-.42-.91C1180.32,329,1179.11,329.55,1177.88,330.06Zm-66.31,12.52c-1.31.29-2.61.59-3.9.92l.25,1c1.27-.32,2.56-.63,3.87-.91l-.22-1Zm-11.6,3.15.31,1c1.25-.41,2.52-.81,3.8-1.18l-.28-1C1102.51,344.93,1101.23,345.32,1100,345.73Zm-14.85,6,.44.9q1.79-.87,3.6-1.68l-.41-.92C1087.53,350.62,1086.32,351.19,1085.12,351.77Zm7.32-3.28.38.93c1.22-.5,2.45-1,3.7-1.43l-.34-.94C1094.92,347.51,1093.67,348,1092.44,348.49Zm27-7.36c-1.34.2-2.65.42-4,.66l.18,1c1.3-.24,2.6-.46,3.92-.66l-.14-1Zm124.08-67.54.81.58c.78-1.09,1.54-2.18,2.31-3.28l-.83-.57C1245.07,271.42,1244.31,272.5,1243.54,273.59Zm-4.75,6.43.79.61c.81-1.07,1.62-2.14,2.41-3.21l-.8-.6C1240.4,277.9,1239.6,279,1238.79,280Zm7-9.7Zm6.63-10,.84.53c.72-1.13,1.43-2.27,2.14-3.41l-.85-.52Zm4.22-6.83.86.52c.69-1.15,1.37-2.3,2-3.46l-.86-.5C1258.05,251.2,1257.37,252.35,1256.68,253.49Zm-22.85,32.79.77.64c.85-1,1.69-2.08,2.52-3.13l-.78-.62C1235.51,284.21,1234.67,285.25,1233.83,286.28ZM1248.08,267l.84.56c.74-1.11,1.48-2.22,2.21-3.34l-.84-.55C1249.56,264.79,1248.83,265.91,1248.08,267ZM1058.52,369.58l.65.75c1-.87,2-1.73,3-2.57l-.64-.77C1060.55,367.84,1059.53,368.7,1058.52,369.58Zm146.82-55.49.6.8c1.07-.8,2.12-1.62,3.16-2.45l-.63-.79C1207.44,312.48,1206.4,313.29,1205.34,314.09Zm-20.23,12.64.45.9c1.19-.6,2.38-1.22,3.55-1.86l-.47-.88C1187.47,325.52,1186.3,326.13,1185.11,326.73Zm7-3.79.5.86c1.16-.67,2.3-1.37,3.43-2.07l-.53-.85C1194.39,321.58,1193.25,322.27,1192.11,322.94Zm36.53-30.59.75.67c.89-1,1.76-2,2.63-3l-.76-.65C1230.4,290.35,1229.52,291.36,1228.64,292.35Zm-5.44,5.86.72.7c.93-1,1.85-1.94,2.77-2.93l-.73-.68Q1224.59,296.77,1223.2,298.21Zm-5.7,5.61.68.73c1-.92,1.94-1.85,2.9-2.79l-.7-.71C1219.43,302,1218.47,302.91,1217.5,303.82Zm-6,5.31.65.76c1-.86,2-1.74,3-2.63l-.67-.75C1213.56,307.39,1212.56,308.27,1211.54,309.13ZM716.43,633.94h4v-1h-4ZM208.93,281.36c.82,1.06,1.65,2.11,2.48,3.16l.78-.63c-.83-1-1.65-2.09-2.46-3.14Zm-1.62-3.8Zm-3.16-2.63c.78,1.08,1.57,2.16,2.36,3.23l.8-.6c-.79-1.06-1.57-2.14-2.35-3.21Zm26.95,29.49-.67.74c1,.91,2,1.8,3,2.69l.66-.75h0C233.07,306.22,232.08,305.33,231.1,304.42Zm-11.92-10.71c.9,1,1.8,2,2.72,3l.73-.68q-1.37-1.46-2.7-2.94Zm-5.24-6.08c.85,1,1.72,2.05,2.59,3.06l.76-.65c-.87-1-1.73-2-2.58-3.05Zm10.73,11.93c.94,1,1.89,1.9,2.85,2.83l.69-.72c-1-.92-1.89-1.86-2.82-2.81Zm-29.5-37.89,2.18,3.37.84-.55c-.73-1.11-1.46-2.23-2.17-3.36Zm4.41,6.7c.74,1.11,1.5,2.2,2.26,3.3l.82-.57-2.26-3.29Zm-28-48.68c.6,1.19,1.21,2.38,1.82,3.57l.89-.46c-.62-1.19-1.22-2.38-1.83-3.57ZM168,212.53c.6,1.19,1.19,2.39,1.8,3.58l.89-.45-1.79-3.58Zm22.92,42.33c.7,1.14,1.4,2.28,2.11,3.42l.84-.53c-.7-1.13-1.4-2.27-2.09-3.41Zm-15.65-28,1.86,3.55.88-.46-1.85-3.55ZM186.83,248c.68,1.15,1.35,2.31,2,3.46l.86-.51c-.69-1.15-1.36-2.3-2-3.46Zm-7.81-14c.64,1.18,1.27,2.36,1.91,3.53l.88-.48c-.64-1.17-1.27-2.34-1.9-3.52Zm3.85,7c.65,1.17,1.3,2.34,2,3.5l.87-.49-2-3.49ZM329.4,341.27h0Zm-12-.34c1.33.09,2.66.2,4,.32l.09-1q-2-.19-4-.33Zm-16-1.3c1.32.18,2.64.34,4,.48l.11-1c-1.33-.14-2.65-.3-3.95-.47Zm-15.71-3.15c1.28.34,2.58.67,3.88,1l.23-1c-1.3-.31-2.58-.63-3.86-1Zm-49.26-26c1,.85,2.05,1.69,3.1,2.52l.62-.79c-1-.82-2.07-1.66-3.08-2.5Zm72.94,30c1.32.1,2.66.19,4,.25l.05-1c-1.34-.06-2.66-.14-4-.25Zm23.78,2.47c1.31.26,2.61.53,3.89.82l.22-1c-1.3-.29-2.6-.57-3.93-.82Zm-7.86-1.25c1.32.17,2.64.36,3.94.57l.15-1c-1.31-.21-2.63-.4-4-.57ZM164.46,205.34q.87,1.78,1.77,3.6l.89-.45h0c-.6-1.2-1.19-2.4-1.78-3.59Zm129,133c1.31.26,2.62.5,3.95.73l.16-1c-1.31-.22-2.62-.46-3.91-.72Zm-50.79-22.87c1.07.8,2.15,1.58,3.25,2.35l.57-.82h0c-1.08-.76-2.16-1.54-3.22-2.33ZM278,334.16c1.26.43,2.53.83,3.82,1.22l.29-1c-1.28-.38-2.54-.79-3.79-1.21ZM249.28,320q1.68,1.09,3.39,2.16l.52-.86c-1.13-.69-2.25-1.41-3.36-2.14Zm-9.11-7.84Zm30.35,19.14c1.23.51,2.47,1,3.73,1.47l.35-.94h0c-1.25-.47-2.48-.95-3.7-1.46Zm-14.39-7.08c1.16.66,2.33,1.31,3.51,1.94l.47-.89q-1.77-.93-3.48-1.92Zm7.08,3.77c1.2.59,2.4,1.16,3.63,1.71l.41-.91c-1.21-.55-2.41-1.11-3.6-1.7ZM154.76,183.31l-.9.45,1.77,3.59.9-.44h0Q155.64,185.09,154.76,183.31ZM54.36,112.13c1.33.21,2.66.38,4,.52l.11-1c-1.31-.15-2.62-.32-3.94-.52ZM163.59,201.3ZM31.37,105.17c1.23.58,2.45,1.13,3.67,1.64l.38-.92c-1.2-.51-2.41-1-3.62-1.63Zm7.41,3.09c1.28.46,2.55.88,3.82,1.26l.29-1c-1.25-.38-2.51-.79-3.77-1.24ZM62.42,112l-.08,1c1.35.1,2.68.18,4,.23l0-1h0C65.07,112.19,63.75,112.12,62.42,112Zm26.4.08-2.47.06,0,1,2.46-.06h1.52l0-1H88.82Zm-15.19.29-3.25,0,0,1c1.1,0,2.19,0,3.27,0h.74v-1Zm8.73-.13c-1.33,0-2.66.07-4,.09l0,1,4-.08,0-1ZM.44,80c.87,1,1.74,2.06,2.61,3l.75-.67c-.87-1-1.73-2-2.59-3Zm1438.9,7.49Zm0,0c-1,1-1.92,1.86-2.88,2.74l.68.74c.95-.88,1.91-1.79,2.86-2.73V88.2ZM94.41,112.43l-.14,1a33,33,0,0,1,3.84.77l.26-1h0A35.11,35.11,0,0,0,94.41,112.43ZM24.32,101.31q1.74,1.06,3.48,2l.48-.87c-1.14-.63-2.29-1.29-3.43-2ZM5.77,86C6.71,87,7.65,88,8.59,88.9l.7-.72c-.94-.91-1.87-1.85-2.8-2.83ZM17.7,96.77c1.08.82,2.17,1.61,3.26,2.35l.56-.83c-1.07-.73-2.15-1.51-3.22-2.32Zm-6.19-5.12c1,.91,2,1.78,3,2.62l.64-.77c-1-.83-2-1.69-3-2.59Zm35.21,18-.24,1c1.31.32,2.62.61,3.92.87l.2-1h0C49.31,110.21,48,109.92,46.72,109.61Zm99.91,59.85,1.83,3.56.89-.45c-.61-1.2-1.22-2.39-1.84-3.57Zm3.65,7.13c.6,1.19,1.19,2.38,1.8,3.58l.89-.45c-.6-1.2-1.2-2.4-1.8-3.58Zm-7.41-14.2c.63,1.17,1.26,2.34,1.89,3.53l.89-.47c-.64-1.19-1.27-2.37-1.9-3.53Zm-41-47a36.62,36.62,0,0,1,3.58,1.6l.45-.89a37.48,37.48,0,0,0-3.67-1.65Zm59.1,82.74c.58,1.2,1.17,2.4,1.76,3.6l.9-.44-1.77-3.6Zm180,146.56c1.29.34,2.57.69,3.83,1.07l.29-1c-1.28-.38-2.56-.74-3.87-1.08ZM157.4,191c.59,1.19,1.17,2.39,1.76,3.59l.9-.44c-.59-1.2-1.18-2.4-1.76-3.6ZM139,155.41c.66,1.14,1.32,2.3,2,3.48l.87-.49c-.65-1.18-1.31-2.34-2-3.49Zm-26.32-35h0Zm2.45,3.29c1,.86,1.94,1.76,2.9,2.7l.7-.71c-1-1-2-1.87-2.94-2.74ZM108.81,119c1.09.69,2.17,1.45,3.23,2.25l.6-.8c-1.08-.82-2.18-1.58-3.29-2.29Zm17,16.42c.8,1,1.6,2.1,2.39,3.19l.81-.58h0c-.8-1.11-1.6-2.18-2.41-3.23Zm4.68,6.46c.74,1.08,1.48,2.19,2.21,3.32l.84-.54c-.74-1.14-1.48-2.26-2.22-3.35Zm4.35,6.7c.69,1.12,1.38,2.26,2.07,3.41l.86-.51c-.69-1.16-1.39-2.3-2.08-3.43Zm-14.13-19.26c.87,1,1.75,2,2.61,3l.77-.65c-.88-1-1.76-2-2.65-3ZM588.43,633.94h4v-1h-4Zm-54.53-8.27c1.14.71,2.29,1.39,3.47,2l.47-.88c-1.15-.62-2.29-1.28-3.41-2Zm7.09,3.78c1.22.54,2.46,1,3.73,1.48l.33-.95c-1.24-.44-2.46-.92-3.66-1.45Zm-13-9.26-.63.78c1,.86,2.11,1.67,3.19,2.45l.59-.81h0C530.08,621.84,529,621,528,620.19Zm-6.57-4.63c1,1,1.92,1.89,2.9,2.78l.67-.74c-1-.88-1.92-1.8-2.86-2.75Zm27.11,16.56c1.28.34,2.59.64,3.91.89l.19-1q-1.95-.36-3.84-.87Zm15.89,1.82h4v-1h-4ZM516,609.6c.87,1,1.75,2.06,2.64,3l.74-.68q-1.32-1.46-2.61-3Zm56.4,24.34h4v-1h-4Zm-16-.34c1.31.14,2.65.24,4,.3l0-1c-1.33,0-2.64-.15-3.93-.29Zm-65-65.28c.57,1.22,1.14,2.44,1.71,3.64l.9-.44c-.57-1.19-1.13-2.4-1.7-3.62Zm3.46,7.25c.6,1.2,1.2,2.4,1.8,3.58l.89-.45h0c-.6-1.18-1.2-2.37-1.79-3.58Zm-9.93-21.93c.53,1.24,1.05,2.47,1.58,3.69l.91-.4c-.52-1.21-1-2.44-1.56-3.68Zm13.58,29.07c.64,1.2,1.28,2.37,1.92,3.54l.87-.49c-.64-1.16-1.27-2.33-1.9-3.51Zm8.07,13.89c.73,1.14,1.47,2.26,2.21,3.36l.83-.57h0c-.74-1.09-1.47-2.2-2.2-3.33Zm-4.17-6.86q1,1.75,2,3.45l.86-.52h0c-.69-1.12-1.37-2.27-2-3.43Zm8.69,13.51c.79,1.09,1.59,2.17,2.4,3.22l.79-.62c-.8-1-1.6-2.1-2.38-3.19Zm-23-42.24c.54,1.23,1.08,2.45,1.63,3.66l.91-.41c-.55-1.21-1.09-2.43-1.63-3.65Zm172.31,72.93h4v-1h-4Zm-8,0h4v-1h-4Zm-72,0h4v-1h-4Zm112,0h4v-1h-4Zm-16,0h4v-1h-4Zm-32,0h4v-1h-4ZM348.54,347c1.26.43,2.51.87,3.74,1.33l.35-.93c-1.24-.47-2.5-.92-3.77-1.35Zm319.89,287h4v-1h-4Zm-72,0h4v-1h-4Zm104,0h4v-1h-4Zm-64,0h4v-1h-4Zm-32,0h4v-1h-4Zm24,0h4v-1h-4Zm-16,0h4v-1h-4Zm8,0h4v-1h-4Zm64,0h4v-1h-4ZM411,394.36c.8,1.05,1.6,2.12,2.39,3.2l.81-.6c-.8-1.08-1.6-2.15-2.41-3.21Zm4.71,6.44c.77,1.09,1.52,2.18,2.27,3.29l.83-.56c-.75-1.11-1.51-2.21-2.28-3.31Zm-9.68-12.69c.84,1,1.68,2.06,2.52,3.1l.78-.62c-.84-1.06-1.68-2.09-2.54-3.12Zm14.16,19.31q1.09,1.66,2.16,3.36l.84-.53c-.71-1.14-1.43-2.26-2.16-3.38Zm4.26,6.76c.69,1.14,1.37,2.28,2.05,3.43l.86-.51c-.68-1.15-1.36-2.3-2.06-3.44ZM400.82,382.1c.9,1,1.78,2,2.66,3l.75-.66c-.88-1-1.77-2-2.67-3Zm32.47,45.5-.88.47c.63,1.17,1.25,2.35,1.87,3.54l.89-.47h0C434.55,430,433.92,428.77,433.29,427.6Zm2.82,7.56c.61,1.19,1.2,2.38,1.8,3.58l.89-.45c-.59-1.2-1.19-2.39-1.8-3.58Zm-7.57-14.09c.66,1.16,1.31,2.32,2,3.49l.87-.48h0c-.64-1.17-1.3-2.34-2-3.49Zm-65.33-68c1.18.6,2.36,1.21,3.52,1.85l.48-.88c-1.17-.64-2.36-1.26-3.56-1.86Zm32.08,23.29c.94.93,1.88,1.88,2.8,2.84l.72-.7q-1.4-1.44-2.82-2.85ZM356,349.77c1.23.51,2.44,1,3.64,1.59l.42-.91c-1.22-.56-2.44-1.09-3.68-1.61Zm14.21,7.11q1.71,1,3.39,2.07l.54-.84q-1.69-1.08-3.42-2.1Zm6.71,4.26c1.1.75,2.18,1.52,3.25,2.3l.59-.81c-1.08-.79-2.17-1.56-3.27-2.32Zm13.2,9-.66.75c1,.88,2,1.77,3,2.68l.68-.73h0C392.1,372,391.11,371,390.1,370.16Zm-6.77-4.32q1.56,1.21,3.09,2.49l.64-.78c-1-.85-2.07-1.68-3.12-2.5Zm78.28,128.08,1.44,3.72.93-.35-1.44-3.73Zm5.74,14.95c.48,1.25.95,2.5,1.43,3.74l.93-.35c-.47-1.25-.95-2.5-1.43-3.75Zm2.86,7.49c.47,1.25,1,2.5,1.43,3.74l.93-.36c-.48-1.24-.95-2.49-1.43-3.74Zm-5.72-15,1.43,3.75.93-.36c-.47-1.25-1-2.5-1.43-3.74Zm14.4,37.41,1.48,3.72.93-.37-1.48-3.72Zm3,7.44c.5,1.24,1,2.48,1.52,3.71l.92-.38-1.52-3.71ZM476,531.32c.49,1.25,1,2.5,1.46,3.74l.93-.37c-.49-1.24-1-2.48-1.46-3.73Zm-2.89-7.48,1.44,3.74.93-.36L474,523.49Zm-26.69-67c.54,1.22,1.08,2.44,1.61,3.67l.92-.4c-.53-1.23-1.07-2.45-1.61-3.67Zm12.31,29.61c.49,1.24,1,2.48,1.46,3.73l.94-.37-1.47-3.73Zm-15.61-36.9c.56,1.21,1.12,2.42,1.67,3.64l.91-.41c-.55-1.22-1.11-2.44-1.67-3.65Zm-3.41-7.24c.58,1.2,1.15,2.4,1.72,3.61l.9-.43c-.57-1.2-1.14-2.41-1.72-3.61Zm6,10.47h0ZM455.72,479c.5,1.24,1,2.49,1.49,3.73l.93-.37c-.49-1.25-1-2.49-1.49-3.73Zm-5.22-15.21-.92.4,1.56,3.68.92-.39h0Zm2.18,7.78c.52,1.24,1,2.47,1.53,3.71l.93-.38-1.53-3.72Z" style="fill:#fff;opacity:0.6000000000000001"/><path d="M151,359.43a18,18,0,1,1-18-18A18,18,0,0,1,151,359.43Z" style="fill:#fff;opacity:0.1"/><ellipse cx="570.67" cy="327.92" rx="18" ry="18.02" style="fill:#fff;opacity:0.1"/><path d="M280.67,113.63a18,18,0,1,1-18-18A18,18,0,0,1,280.67,113.63Z" style="fill:#6a6d89;opacity:0.1"/><ellipse cx="224.67" cy="704.43" rx="8" ry="8.01" style="fill:#6a6d89;opacity:0.1"/><path d="M156.67,55.54a8,8,0,1,1-8-8A8,8,0,0,1,156.67,55.54Z" style="fill:#6a6d89;opacity:0.1"/><path d="M1184.5,191.56a14,14,0,1,1-14-14A14,14,0,0,1,1184.5,191.56Z" style="fill:#6a6d89;opacity:0.1"/><path d="M1399,668.72a14,14,0,1,1-14-14A14,14,0,0,1,1399,668.72Z" style="fill:#6a6d89;opacity:0.1"/><path d="M1136.67,30.51a15,15,0,1,1-15-15A15,15,0,0,1,1136.67,30.51Z" style="fill:#fff;opacity:0.1"/><path d="M81,444.55a6,6,0,1,1-6-6A6,6,0,0,1,81,444.55Z" style="fill:#fff;opacity:0.1"/><path d="M633.5,378.82a6,6,0,1,1-6-6A6,6,0,0,1,633.5,378.82Z" style="fill:#fff;opacity:0.1"/><path d="M1059,537.67a6,6,0,1,1-6-6A6,6,0,0,1,1059,537.67Z" style="fill:#fff;opacity:0.1"/><path d="M1366,494.62a6,6,0,1,1-6-6A6,6,0,0,1,1366,494.62Z" style="fill:#fff;opacity:0.1"/></g></g></svg>
