<svg width="1440" height="933" fill="none" xmlns="http://www.w3.org/2000/svg" preserveAspectRatio="none"><g clip-path="url(#clip0)"><path fill="#fff" d="M0 0h1440v933H0z"/><path d="M1440 0H0v1000h1440V0z" fill="url(#paint0_linear)"/><path opacity=".1" d="M1133.79 423.19c-236.07-89.65-221.07 79.42-393.56 79.42H563.5c-106.67.42-94.76-160.07-249.33-184.07-144.2-22.38-152.42 42.57-225.34 43-26.62.15-58.3 1-88.83-9.19V1000h1440V305.07c-28-16.23-56.56-40.38-80.88-40.52-72.91-.42-88.91 210.45-225.33 158.64z" fill="#fff"/><path opacity=".1" d="M1133.79 753.5C969 755.32 991.12 829 884.46 828.58h-321C456.83 829 479 625.19 314.17 623.38c-145.92-1.6-152.42 71.43-225.34 71.83-26.62.14-58.3.9-88.83-8.68V1000h1440V641.84c-28-15.35-56.56-38.18-80.88-38.31-72.91-.39-79.42 148.37-225.33 149.97z" fill="#fff"/><path opacity=".6" d="M980.55 871.08l-2.36 3.23.81.59 2.36-3.23-.81-.59zm-11.88 16.08l.79.6c.81-1 1.61-2.12 2.41-3.2l-.8-.59-2.4 3.19zm4.79-6.4l.8.59 2.37-3.22-.8-.59c-.83 1.07-1.59 2.15-2.37 3.22zm9.47-12.9l.8.59 2.38-3.21-.8-.6c-.8 1.07-1.59 2.15-2.38 3.22zm4.78-6.42l.8.6 2.42-3.18-.8-.61-2.42 3.19zm94.62-70.15l.26 1c1.27-.35 2.55-.69 3.86-1l-.25-1c-1.3.32-2.6.65-3.87 1zM942 916.65l.64.77c1.02-.86 2.02-1.74 3-2.64L945 914c-1 .93-2 1.8-3 2.65zm50.63-61.57l.79.62c.81-1.05 1.64-2.09 2.47-3.13l-.78-.63c-.87 1.06-1.7 2.06-2.52 3.14h.04zm-56.91 66.44l.58.81a92.38 92.38 0 003.22-2.39l-.61-.79c-1.09.85-2.15 1.6-3.23 2.37h.04zm28.09-28l.79.63c.82-1.05 1.65-2.1 2.47-3.16l-.79-.61c-.86 1.01-1.68 2.06-2.51 3.09l.04.05zm-5 6.18l.76.65c.86-1 1.72-2 2.56-3.09l-.77-.63c-.94.99-1.79 2.01-2.64 3.02l.09.05zm-5.29 6l.74.68c.9-1 1.8-2 2.69-3l-.75-.66c-.98.95-1.87 1.93-2.77 2.9l.09.08zm-5.56 5.7l.69.72c1-.93 1.91-1.87 2.84-2.83l-.71-.7c-1.02.87-1.96 1.81-2.91 2.73l.09.08zm104.58-108.55l.45.89c1.18-.6 2.37-1.19 3.57-1.76l-.43-.9c-1.3.5-2.5 1.09-3.68 1.69l.09.08zm-7 3.83l.5.87c1.14-.66 2.3-1.32 3.47-2l-.48-.88c-1.31.61-2.48 1.27-3.62 1.93l.13.08zm14.28-7.28l.4.92a134.2 134.2 0 013.66-1.57l-.38-.92c-1.37.43-2.6.96-3.81 1.49l.13.08zm15-5.73l.31.95c1.25-.41 2.52-.8 3.8-1.19l-.29-1c-1.46.35-2.73.75-3.99 1.16l.17.08zm-7.56 2.68l.36.93c1.23-.47 2.48-.93 3.74-1.38l-.33-.94c-1.44.37-2.7.83-3.94 1.31l.17.08zm-28.5 14.54l.54.84c1.11-.72 2.22-1.44 3.36-2.14l-.52-.85c-1.32.63-2.44 1.35-3.55 2.07l.17.08zm-35.82 31.9l.76.66c.87-1 1.75-2 2.64-3l-.74-.67-2.66 3.01zm29.06-27.4l.59.8c1.06-.78 2.14-1.55 3.24-2.31l-.57-.82c-1.1.76-2.19 1.54-3.26 2.33zm-23.85 21.37l.73.69c.9-1 1.82-1.93 2.75-2.89l-.72-.7c-.91.96-1.85 1.93-2.76 2.9zm-10.55 12.07l.77.63c.84-1.02 1.69-2.04 2.55-3.06l-.76-.65c-.86 1.02-1.72 2.05-2.56 3.08zm16.14-17.83l.7.71c.95-.93 1.9-1.85 2.87-2.76l-.68-.73c-.98.94-1.94 1.87-2.89 2.78zm5.84-5.5l.66.74c1-.88 2-1.76 3-2.63l-.65-.76c-1.02.9-2.03 1.78-3.01 2.67v-.02zm6.08-5.22l.63.77c1-.83 2.07-1.66 3.12-2.48l-.61-.79c-1.06.85-2.11 1.68-3.14 2.52v-.02zM932.4 923.75a92.309 92.309 0 01-3.39 2.07l.51.86c1.16-.67 2.3-1.37 3.42-2.09l-.54-.84zM787.34 938h4v-1h-4v1zm8 0h4v-1h-4v1zm-16 0h4v-1h-4v1zm32 0h4v-1h-4v1zm-40 0h4v-1h-4v1zm32 0h4v-1h-4v1zm-48 0h4v-1h-4v1zm-16 0h4v-1h-4v1zm-8 0h4v-1h-4v1zm16 0h4v-1h-4v1zm16 0h4v-1h-4v1zm56 0h4v-1h-4v1zm48 0h4v-1h-4v1zm27.93-1.47c-1.3.13-2.62.23-4 .31l.06 1c1.35-.08 2.69-.18 4-.31l-.09-1h.03zm-7.94.45h-4v1h4v-1zm-60 1h4v-1h-4v1zm91-6.94c-1.22.49-2.46.94-3.72 1.37l.32 1c1.28-.44 2.53-.9 3.77-1.39l-.37-.93v-.05zM907 934.58l.23 1c1.32-.31 2.61-.65 3.88-1l-.27-1c-1.26.36-2.54.69-3.84 1zM875.34 938h4v-1h-4v1zm23.87-2l.14 1c1.34-.19 2.66-.4 4-.65l-.19-1c-1.32.28-2.62.49-3.95.65zm-63.87 2h4v-1h-4v1zm8 0h4v-1h-4v1zm-120 0h4v-1h-4v1zM922 929.47l.41.91c1.23-.56 2.43-1.15 3.61-1.76l-.46-.89c-1.19.6-2.37 1.18-3.56 1.74zM859.34 938h4v-1h-4v1zm-8 0h4v-1h-4v1zm238.76-148.65l.22 1c1.29-.29 2.58-.57 3.9-.84l-.2-1c-1.32.27-2.63.55-3.92.84zm242-117.87l.42.9c1.19-.55 2.4-1.06 3.63-1.54l-.36-.93c-1.29.49-2.52 1.01-3.73 1.57h.04zm-13.77 8.24l.59.81c1.08-.79 2.16-1.56 3.25-2.29l-.55-.83c-1.15.74-2.24 1.51-3.33 2.31h.04zm6.67-4.47l.52.86c1.14-.69 2.29-1.34 3.45-2l-.47-.88a80.87 80.87 0 00-3.5 2.02zm14.59-6.68l.29 1c1.26-.4 2.52-.76 3.81-1.07l-.24-1c-1.35.31-2.64.67-3.9 1.07h.04zm-66.96 55.92l.71.7c1-1 1.88-1.9 2.81-2.85l-.72-.7c-.96.98-1.89 1.93-2.84 2.88l.04-.03zm16.57-17.34l.73.68 2.75-2.91-.73-.68-2.75 2.91zm-5.48 5.83l.73.68 2.74-2.91-.73-.69c-.94 1-1.86 1.94-2.78 2.94l.04-.02zm-5.51 5.79l.72.69c.93-1 1.86-1.93 2.77-2.89l-.73-.69-2.76 2.89zm22.09-23.17l.71.71c1-1 1.89-1.89 2.84-2.81l-.7-.72-2.85 2.82zm5.7-5.6l.69.73c1-.91 2-1.81 2.94-2.69l-.67-.74c-.96.92-1.96 1.82-2.96 2.7zm-8.56 8.45c-.92.94-1.85 1.9-2.78 2.88l.72.69 2.78-2.88-.72-.69zm49.9-31.83l.17 1c1.28-.23 2.59-.41 3.91-.56l-.11-1c-1.31.19-2.66.37-3.96.6l-.01-.04zm79-8.09l.34.95c1.25-.45 2.5-.92 3.76-1.42l-.37-.93c-1.2.54-2.45 1-3.69 1.44l-.04-.04zm-7.59 2.39l.27 1c1.28-.35 2.57-.73 3.85-1.13l-.3-.95c-1.23.4-2.51.77-3.78 1.16l-.04-.08zm-7.74 1.85l.2 1c1.3-.26 2.61-.55 3.92-.87l-.23-1c-1.26.36-2.56.65-3.85.91l-.04-.04zm26.33-8.86c-1.2.59-2.4 1.15-3.61 1.68l.41.92c1.21-.54 2.43-1.1 3.64-1.7l-.44-.9zm-34.18 10.21l.14 1c1.32-.18 2.64-.39 4-.62l-.17-1c-1.31.27-2.62.5-3.93.66l-.04-.04zm-23.87 1.68v1c1.33 0 2.66 0 4-.08v-1c-1.29.08-2.63.1-3.96.12l-.04-.04zm-16 .94l4 .05v-1l-4-.05v1zm11-.9h-3v1h4v-1h-1zm13-.27v1c1.33-.07 2.67-.14 4-.23l-.07-1c-1.22.13-2.58.21-3.9.27l-.03-.04zm-29 .11c-1 0-2 0-3 .07v1c1 0 2-.07 3-.07h1v-1h-1zm36.91-.65l.09 1c1.32-.12 2.65-.25 4-.41l-.11-1c-1.26.2-2.58.38-3.9.45l-.08-.04zM1312 684.7l.64.76c1-.86 2-1.7 3.08-2.52l-.62-.78c-1.04.84-2.1 1.67-3.1 2.54zm-174.22 99.46v1c1.35 0 2.68-.11 4-.18v-1c-1.33.067-2.66.127-4 .18zm15.92-1.09l.1 1 4-.44-.12-1c-1.32.16-2.68.3-3.98.44zm-8 .67l.07 1c1.35-.09 2.68-.19 4-.3l-.09-1c-1.26.11-2.59.21-3.93.3h-.05zm15.87-1.61l.14 1 4-.58-.15-1-3.99.58zm105.28-52l.69.72c1-.93 1.92-1.86 2.87-2.79l-.7-.71-2.86 2.78zm-97.4 50.78l.18 1c1.32-.23 2.64-.47 3.93-.73l-.19-1c-1.24.24-2.55.49-3.87.72l-.05.01zm7.83-1.53l.21 1c1.31-.28 2.62-.58 3.91-.88l-.24-1c-1.23.29-2.52.58-3.83.87l-.05.01zm-75.43 7.71c-1.33.22-2.65.44-4 .68l.18 1c1.3-.23 2.61-.46 3.93-.67l-.16-1 .05-.01zm4-.6l.14 1 4-.52-.12-1c-1.37.15-2.7.33-4.01.51l-.01.01zm8-1l.11 1c1.31-.14 2.63-.26 4-.38l-.09-1-4.02.38zm8-.69l.07 1c1.31-.09 2.64-.17 4-.24v-1c-1.48.09-2.81.17-4.13.26l.06-.02zm12-.54c-1.35 0-2.67.07-4 .12v1c1.31 0 2.63-.09 4-.12v-1zm51.3-6.76l.25 1c1.33-.34 2.62-.673 3.87-1l-.27-1c-1.34.33-2.62.68-3.92 1.02l.07-.02zm57.41-26.88l.59.82c1.09-.79 2.16-1.58 3.23-2.38l-.6-.79c-1.13.81-2.2 1.6-3.29 2.37l.07-.02zm9.5-7.27c-1.03.84-2.07 1.67-3.12 2.49l.62.79c1.06-.83 2.1-1.66 3.13-2.5l-.63-.78zm-16.08 11.78l.55.84c1.13-.74 2.24-1.48 3.33-2.23l-.56-.83c-1.16.77-2.3 1.51-3.39 2.24l.07-.02zm19.15-14.33l.64.77c1-.87 2-1.74 3-2.62l-.66-.75c-1.02.89-2.03 1.8-3.05 2.62l.07-.02zm6-5.25l.67.74c1-.9 2-1.81 3-2.72l-.68-.73c-1.12.93-2.07 1.83-3.06 2.73l.07-.02zm-31.92 23.78l.51.86c1.16-.68 2.3-1.37 3.43-2.07l-.53-.85c-1.19.73-2.33 1.4-3.48 2.08l.07-.02zm-28.83 13.48l.34.94c1.27-.45 2.52-.91 3.76-1.39l-.36-.93c-1.3.49-2.55.95-3.81 1.4l.07-.02zm-7.56 2.51l.29 1c1.29-.39 2.56-.8 3.82-1.22l-.32-1c-1.32.45-2.61.9-3.86 1.24l.07-.02zm15-5.36l.38.92c1.25-.51 2.47-1 3.69-1.56l-.4-.92c-1.28.6-2.49 1.07-3.74 1.6l.07-.04zm14.43-6.75l.47.89c1.19-.63 2.36-1.27 3.52-1.91l-.49-.88c-1.22.69-2.38 1.3-3.57 1.92l.07-.02zm-7.13 3.55l.42.9c1.22-.57 2.42-1.15 3.61-1.74l-.45-.89c-1.24.6-2.44 1.18-3.65 1.75l.07-.02zM563.33 937v1h4v-1h-4zM224.17 763.52c1.17.63 2.35 1.25 3.55 1.85l.45-.89c-1.19-.6-2.37-1.22-3.53-1.84l-.47.88zm-7-3.95c1.14.68 2.3 1.35 3.47 2l.49-.88c-1.16-.66-2.31-1.32-3.44-2l-.52.88zm14.18 7.57c1.2.57 2.41 1.13 3.64 1.68l.41-.91c-1.22-.55-2.43-1.1-3.62-1.67l-.43.9zm-20.91-11.85c1.11.73 2.23 1.46 3.37 2.18l.53-.85c-1.13-.71-2.24-1.43-3.34-2.16l-.56.83zm-6.58-4.58c1.07.79 2.16 1.56 3.27 2.33l.57-.82c-1.1-.77-2.18-1.54-3.25-2.31l-.59.8zM179.45 730c1 .92 1.92 1.84 2.89 2.76l.66-.76c-1-.92-1.94-1.84-2.89-2.76l-.66.76zm59.21 40.46c1.22.51 2.46 1 3.71 1.51l.37-.94c-1.25-.49-2.48-1-3.69-1.49l-.39.92zm-53.38-35c1 .9 2 1.79 3 2.68l.66-.75c-1-.88-2-1.77-3-2.67l-.66.74zm-11.52-11.13c.93.94 1.87 1.89 2.83 2.83l.7-.71-2.82-2.82-.71.7zm23.71 21.54c1 .83 2.09 1.65 3.16 2.46l.61-.79c-1.06-.81-2.11-1.63-3.15-2.45l-.62.78zm-6.19-5.1c1 .87 2 1.73 3.07 2.58l.64-.77c-1-.85-2.05-1.7-3.06-2.57l-.65.76zM277 781.66c1.3.24 2.62.46 3.95.68l.16-1c-1.33-.21-2.64-.44-3.93-.67l-.18.99zm31.83 3.45c1.32.06 2.66.1 4 .14v-1c-1.34 0-2.67-.08-4-.14v1zm-8-.46c1.32.1 2.66.19 4 .26l.06-1c-1.34-.08-2.67-.17-4-.27l-.06 1.01zm16 .71c1.34 0 2.67.09 4 .16l.05-1c-1.33-.06-2.66-.12-4-.16l-.05 1zm15.92 1c1.34.13 2.66.27 4 .43l.12-1a387.272 387.272 0 00-4-.42l-.12.99zm-39.89-2.44c1.31.14 2.64.27 4 .39l.09-1c-1.33-.12-2.66-.25-4-.39l-.09 1zm31.94 1.8c1.34.08 2.67.18 4 .29l.08-1c-1.32-.11-2.65-.2-4-.29l-.08 1zm-55.66-5.67c1.3.29 2.6.57 3.92.84l.2-1-3.9-.83-.22.99zm-15.47-4.14c1.26.39 2.54.78 3.83 1.16l.28-1c-1.28-.38-2.56-.76-3.81-1.16l-.3 1zm7.69 2.24c1.28.34 2.58.67 3.88 1l.24-1c-1.3-.32-2.59-.65-3.86-1l-.26 1zm-93.22-59.6c.91 1 1.84 1.92 2.78 2.89l.71-.7-2.77-2.88-.72.69zm78.28 53.84l-.34.93c1.24.46 2.5.91 3.78 1.34l.32-.95c-1.18-.41-2.48-.85-3.72-1.3l-.04-.02zM285 782.94c1.31.19 2.63.37 4 .53l.12-1c-1.33-.16-2.65-.34-4-.53l-.12 1zM83.33 665.8v1l4-.06v-1l-4 .06zm-24 .74l4 .18v-1c-1.32-.05-2.65-.1-4-.17v.99zm-8-.59c1.33.13 2.67.24 4 .34l.08-1c-1.32-.1-2.65-.22-4-.34l-.08 1zm-15.87-2.42c1.32.28 2.63.54 3.94.78l.18-1c-1.3-.24-2.6-.5-3.9-.78l-.22 1zm7.9 1.44c1.33.2 2.66.38 4 .54l.12-1c-1.31-.16-2.63-.34-4-.54l-.12 1zm24 1.85h4v-1h-4v1zm8-1v1h4v-1c-1.34.033-2.68.05-4.02.05l.02-.05zM12.61 656c1.23.57 2.46 1.1 3.68 1.61l.39-.93c-1.22-.5-2.44-1-3.65-1.58l-.42.9zM0 649.15c.66.42 1.31.85 2 1.25l.52-.86C1.66 649 .83 648.5 0 648v1.15zm5.45 3.26c1.18.65 2.36 1.28 3.55 1.87l.45-.89c-1.18-.59-2.35-1.21-3.52-1.86l-.48.88zm335.4 133.9l-.13 1c1.33.18 2.64.37 3.94.57l.16-1c-1.31-.2-2.63-.39-3.97-.57zM27.67 661.58c1.29.37 2.58.72 3.87 1l.25-1c-1.28-.32-2.56-.66-3.85-1l-.27 1zm-7.67-2.5c1.26.47 2.53.91 3.79 1.32l.31-.95c-1.25-.41-2.51-.84-3.76-1.3l-.34.93zm86.88 10.08c1.27.38 2.52.79 3.75 1.24l.34-.94a59.397 59.397 0 00-3.81-1.26l-.28.96zm21.13 10.63c1.07.76 2.14 1.56 3.19 2.37l.61-.79c-1.06-.82-2.13-1.62-3.21-2.39l-.59.81zm-36.73-13c1.34 0 2.66.12 4 .23l.09-1c-1.32-.11-2.66-.19-4-.22l-.09.99zm54.76 28.7c.94.93 1.88 1.88 2.82 2.83l.71-.7c-.94-1-1.88-1.9-2.82-2.84l-.71.71zm-5.75-5.53c1 .9 1.93 1.81 2.9 2.74l.69-.72c-1-.93-1.94-1.85-2.91-2.75l-.68.73zm16.86 17l2.74 2.91.73-.69-2.74-2.91-.73.69zm-5.51-5.8c.92 1 1.84 1.92 2.76 2.89l.73-.69-2.77-2.89-.72.69zm-17.34-16.49c1 .84 2 1.71 3 2.59l.66-.75c-1-.89-2-1.76-3.05-2.61l-.61.77zM715.34 938h4v-1h-4v1zM162.67 712.76c.91 1 1.82 1.94 2.75 2.91l.72-.68-2.74-2.91-.73.68zm-63.46-45.31c1.31.2 2.61.44 3.88.73l.22-1c-1.3-.29-2.61-.53-4-.74l-.1 1.01zm22.19 8c1.13.66 2.26 1.36 3.37 2.08l.55-.84a76.877 76.877 0 00-3.42-2.1l-.5.86zm-7.06-3.6c1.21.53 2.4 1.1 3.57 1.7l.46-.89c-1.19-.61-2.4-1.18-3.63-1.72l-.4.91zm473 266.15h4v-1h-4v1zm-8 0h4v-1h-4v1zm-8 0h4v-1h-4v1zm32 0h4v-1h-4v1zm-48-.24c1.31.09 2.64.15 4 .2v-1c-1.34 0-2.67-.1-4-.19v.99zm40 .24h4v-1h-4v1zm-47.83-2.11l-.15 1c1.3.21 2.62.38 4 .53l.11-1c-1.36-.2-2.67-.37-3.96-.57v.04zm63.83 2.11h4v-1h-4v1zm-94-11.93c1.14.69 2.31 1.35 3.5 2l.47-.88c-1.17-.63-2.32-1.29-3.46-2l-.51.88zm-6.67-4.44c1.07.79 2.17 1.55 3.28 2.29l.55-.83a81.65 81.65 0 01-3.24-2.27l-.59.81zm13.75 8.25c1.2.57 2.42 1.12 3.66 1.63l.39-.92c-1.23-.51-2.44-1-3.62-1.61l-.43.9zm15.08 5.41c1.29.32 2.59.62 3.92.88l.19-1c-1.31-.26-2.6-.55-3.86-.87l-.25.99zm-35.11-18.66c1 .87 2 1.73 3.09 2.56l.62-.78c-1-.83-2-1.67-3.06-2.54l-.65.76zm27.44 16.33c1.24.453 2.51.873 3.81 1.26l.29-1c-1.28-.38-2.54-.8-3.77-1.24l-.33.98zm151.52 5h4v-1h-4v1zm-16 0h4v-1h-4v1zm24 0h4v-1h-4v1zm-16 0h4v-1h-4v1zm24 0h4v-1h-4v1zm-80 0h4v-1h-4v1zm88 0h4v-1h-4v1zm-72 0h4v-1h-4v1zm-8 0h4v-1h-4v1zm24 0h4v-1h-4v1zm-8 0h4v-1h-4v1zm16 0h4v-1h-4v1zM468.2 873.87l2.37 3.23.8-.6-2.37-3.22-.8.59zm-74.27-70.77c1.2.59 2.38 1.2 3.54 1.82l.47-.88c-1.17-.63-2.35-1.24-3.56-1.84l-.45.9zm13.84 7.9c1.12.72 2.23 1.45 3.32 2.2l.56-.83c-1.1-.75-2.21-1.49-3.34-2.21l-.54.84zm24.84 19.88c.95.93 1.9 1.86 2.83 2.81l.71-.7c-.94-1-1.88-1.89-2.85-2.83l-.69.72zm-18.26-15.4c1.08.78 2.15 1.58 3.2 2.38l.6-.8c-1.06-.81-2.13-1.6-3.22-2.39l-.58.81zm12.42 10c1 .89 2 1.78 3 2.68l.68-.73c-1-.91-2-1.8-3-2.7l-.68.75zm-6.09-5.14c1 .84 2.07 1.68 3.08 2.53l.64-.76c-1.007-.86-2.037-1.71-3.09-2.55l-.63.78zM401 806.84c1.16.66 2.3 1.34 3.43 2l.52-.86c-1.14-.68-2.29-1.36-3.46-2l-.49.86zm-36.8-14.91c1.29.35 2.57.7 3.83 1.07l.28-1c-1.27-.37-2.55-.73-3.86-1.08l-.25 1.01zm22.56 7.8c1.22.54 2.44 1.08 3.63 1.64l.42-.91c-1.2-.56-2.42-1.11-3.65-1.64l-.4.91zm-30.31-9.67c1.31.29 2.61.58 3.89.89l.23-1a171.264 171.264 0 00-3.9-.9l-.22 1.01zm22.92 6.7c1.26.47 2.49 1 3.72 1.44l.37-.93c-1.23-.49-2.48-1-3.74-1.45l-.35.94zm-7.52-2.6c1.27.41 2.53.82 3.78 1.25l.32-.94c-1.25-.43-2.52-.86-3.8-1.26l-.3.95zm115.8 105.16c.86 1 1.73 2 2.6 3l.76-.66c-.87-1-1.73-2-2.59-3l-.77.66zm-9.93-12.58c.8 1.07 1.61 2.14 2.42 3.19l.8-.61c-.81-1.05-1.62-2.11-2.42-3.18l-.8.6zm4.88 6.35c.83 1.06 1.66 2.1 2.5 3.13l.78-.63c-.833-1.02-1.663-2.06-2.49-3.12l-.79.62zm-9.66-12.77c.79 1.08 1.58 2.15 2.38 3.22l.8-.6-2.38-3.21-.8.59zm-124.35-91.8c1.32.23 2.63.48 3.92.73l.2-1c-1.3-.26-2.62-.5-3.94-.73l-.18 1zm149.89 122.63c1 .94 1.92 1.86 2.9 2.77l.68-.74c-1-.89-1.93-1.81-2.88-2.75l-.7.72zm-5.56-5.79c.91 1 1.82 2 2.74 2.93l.72-.69c-.91-1-1.82-1.93-2.72-2.91l-.74.67zm-29.46-37.94l2.38 3.22.8-.59-2.37-3.22-.81.59zm-25.25-30.9c.92 1 1.82 1.94 2.72 2.93l.73-.68c-.893-.98-1.803-1.96-2.73-2.94l-.72.69zm5.38 5.89l2.62 3 .76-.65c-.87-1-1.74-2-2.63-3l-.75.65zm5.18 6.07c.86 1 1.7 2.06 2.53 3.09l.78-.62c-.84-1-1.68-2.07-2.54-3.11l-.77.64zm5 6.22c.83 1 1.64 2.1 2.46 3.15l.79-.61-2.46-3.16-.79.62zm4.88 6.32l2.41 3.2.8-.6c-.8-1.07-1.6-2.14-2.41-3.2l-.8.6zm524.21-223.5l.93.35 1.44-3.73-.93-.36-1.44 3.74zM980 645l.93.36c.48-1.25 1-2.49 1.43-3.74l-.93-.36c-.49 1.24-.96 2.49-1.43 3.74zm-5.72 15l.93.35c.48-1.24 1-2.48 1.44-3.74l-.94-.35c-.48 1.2-.96 2.44-1.44 3.74h.01zm78.34-147.44l.7.72c1-.92 1.92-1.84 2.89-2.73l-.67-.74c-1 .85-1.97 1.77-2.93 2.7l.01.05zm-61 102.65l.93.37c.5-1.23 1-2.47 1.51-3.7l-.93-.38c-.48 1.18-.98 2.42-1.48 3.66l-.03.05zm-2.98 7.43l.93.37 1.48-3.72-.93-.37-1.48 3.72zm-2.92 7.46l.93.36c.48-1.24 1-2.48 1.45-3.73l-.93-.36c-.46 1.19-.94 2.43-1.42 3.68l-.03.05zM956 704.32l.91.42c.55-1.2 1.11-2.42 1.66-3.64l-.92-.41c-.53 1.22-1.09 2.43-1.65 3.63zm15.38-36.91l.93.36c.48-1.24 1-2.48 1.45-3.73l-.94-.36-1.44 3.73zm-18.81 44.13l.9.44c.58-1.19 1.16-2.39 1.74-3.61l-.9-.43c-.57 1.21-1.15 2.42-1.73 3.6h-.01zm8.29-18.18c-.52 1.23-1 2.46-1.59 3.67l.92.4c.53-1.21 1.06-2.44 1.59-3.67l-.92-.4zm7.6-18.5l.93.37c.48-1.24 1-2.48 1.46-3.73l-.93-.36c-.48 1.24-.92 2.49-1.45 3.72h-.01zm-3 7.43l.93.37c.5-1.23 1-2.47 1.49-3.71l-.92-.37-1.5 3.71zM949 718.67l.89.46c.62-1.17 1.23-2.36 1.84-3.56l-.89-.45c-.65 1.19-1.26 2.38-1.84 3.55zm13.48-29l.92.39 1.54-3.7-.94-.36a681.343 681.343 0 00-1.56 3.68l.04-.01zm64.94-146.1l.83.55c.73-1.12 1.47-2.22 2.22-3.32l-.82-.56c-.8 1.11-1.54 2.22-2.27 3.34l.04-.01zm4.52-6.62l.81.58c.78-1.09 1.56-2.17 2.35-3.23l-.81-.6a79.27 79.27 0 00-2.39 3.3l.04-.05zm-8.82 13.39l.85.52c.7-1.14 1.4-2.27 2.11-3.39l-.84-.53c-.76 1.13-1.46 2.26-2.16 3.41l.04-.01zm18.62-26.08l.76.64c.86-1 1.73-2 2.61-3l-.75-.66c-.92.99-1.8 2-2.66 3.03l.04-.01zm5.31-6l.73.67c.91-1 1.82-1.93 2.75-2.88l-.72-.7c-.95.947-1.89 1.917-2.81 2.91h.05zm-7.86 9.1c-.84 1-1.66 2.09-2.48 3.15l.79.61c.81-1 1.64-2.1 2.47-3.13l-.78-.63zM1021 553.78c-.68 1.15-1.36 2.3-2 3.46l.86.5c.67-1.16 1.34-2.31 2-3.45l-.86-.51zm-7.81 14c-.62 1.18-1.24 2.36-1.85 3.55l.89.46c.61-1.19 1.22-2.37 1.84-3.55l-.88-.46zm-15.38 32.57l.92.39c.52-1.22 1-2.45 1.59-3.67l-.92-.4-1.59 3.68zM1001 593l.91.41c.54-1.21 1.09-2.43 1.64-3.63l-.91-.42c-.52 1.22-1.07 2.44-1.64 3.64zm6.75-14.5l.89.43 1.77-3.58-.89-.45c-.52 1.21-1.16 2.4-1.74 3.61l-.03-.01zm-1.74 3.61c-.57 1.2-1.14 2.41-1.7 3.62l.9.42c.57-1.2 1.13-2.41 1.7-3.61l-.9-.43zm-11.35 25.62l.93.38c.51-1.23 1-2.47 1.55-3.69l-.92-.4-1.56 3.71zm20.39-43.5l.88.48 1.92-3.5-.87-.49c-.62 1.17-1.26 2.34-1.9 3.52l-.03-.01zm-36.52 84.49c-.48 1.25-.95 2.5-1.43 3.74l.94.36c.47-1.25.95-2.49 1.43-3.74l-.94-.36zm-166.1 122.36h4v-1h-4v1zm-8 0h4v-1h-4v1zm-24 0h4v-1h-4v1zm8 0h4v-1h-4v1zm8 0h4v-1h-4v1zm24 0h4v-1h-4v1zm16 0h4v-1h-4v1zm-8 0h4v-1h-4v1zm16 0h4v-1h-4v1zm-72 0h4v-1h-4v1zm-48 0h4v-1h-4v1zm16 0h4v-1h-4v1zm-8 0h4v-1h-4v1zm16 0h4v-1h-4v1zm16 0h4v-1h-4v1zm-8 0h4v-1h-4v1zm96 0h4v-1h-4v1zm94.65-48.9c-.65 1.18-1.3 2.34-2 3.48l.87.5c.66-1.15 1.31-2.31 2-3.5l-.87-.48zm-32.76 39.29l.54.85c1.12-.73 2.22-1.49 3.3-2.29l-.6-.81c-1.06.78-2.14 1.55-3.24 2.25zm-205.89 9.61h4v-1h-4v1zm212.23-14.31l.65.77c1-.86 2-1.74 3-2.66l-.68-.73c-.98.9-1.96 1.78-2.97 2.62zm18.17-20.93c-.74 1.11-1.5 2.2-2.26 3.27l.81.59c.77-1.08 1.53-2.18 2.28-3.31l-.83-.55zm2.17-3.34l.84.53c.71-1.11 1.42-2.25 2.11-3.41l-.86-.51c-.68 1.15-1.38 2.28-2.09 3.39zm-14.55 18.87l.72.69c.92-.95 1.83-1.93 2.73-2.93l-.75-.67a51.527 51.527 0 01-2.69 2.91h-.01zm-58 19.71h4v-1h-4v1zm8 0h4v-1h-4v1zm-16 0h4v-1h-4v1zm31.91-1.44l.13 1c1.34-.18 2.66-.4 4-.67l-.21-1c-1.28.29-2.62.5-3.94.67h.02zm7.72-1.59l.28 1c1.29-.37 2.56-.79 3.8-1.26l-.35-.94c-1.24.42-2.49.83-3.75 1.2h.02zm7.36-2.76l.43.91c1.21-.56 2.4-1.17 3.57-1.82l-.48-.87c-1.18.64-2.35 1.23-3.54 1.78h.02zm-22.12 4.8h-.87v1h.87c1.07 0 2.12 0 3.16-.09l-.06-1a53.9 53.9 0 01-3.12.09h.02zm48.91-27.77c-.82 1.06-1.64 2.1-2.47 3.12l.77.63c.84-1.02 1.67-2.07 2.49-3.15l-.79-.6zm370.44-443.43l.88.48c.65-1.18 1.29-2.35 1.94-3.5l-.87-.49c-.62 1.16-1.32 2.32-1.97 3.51h.02zm-1.9 3.52c-.63 1.17-1.25 2.35-1.88 3.55l.89.46c.62-1.19 1.25-2.37 1.87-3.54l-.88-.47zm5.84-10.51l.86.5c.68-1.16 1.35-2.31 2-3.44l-.86-.51c-.67 1.13-1.35 2.28-2.02 3.45h.02zm-11.39 21.18l.9.45c.6-1.2 1.21-2.38 1.82-3.56l-.89-.46c-.62 1.18-1.24 2.37-1.85 3.57h.02zm-3.59 7.16l.9.44c.59-1.2 1.19-2.39 1.79-3.58l-.9-.44-1.79 3.58zm28.28-48.39l.79.62c.83-1.06 1.67-2.09 2.52-3.08l-.76-.65c-.88 1-1.72 2.04-2.57 3.11h.02zm-57.2 105.45l.87.48c.65-1.16 1.29-2.33 1.93-3.5l-.88-.48-1.92 3.5zm52.44-99l.82.56c.77-1.1 1.54-2.19 2.32-3.24l-.81-.59c-.8 1.08-1.58 2.17-2.35 3.29l.02-.02zm-44.91 84.91l.89.47c.61-1.19 1.23-2.38 1.83-3.56l-.89-.46c-.62 1.2-1.23 2.39-1.85 3.57l.02-.02zm17.85-35.81l.89.44 1.77-3.59-.89-.44-1.77 3.59zm-14.2 28.7l.89.45c.61-1.19 1.21-2.39 1.81-3.58l-.9-.44c-.61 1.2-1.21 2.4-1.82 3.59l.02-.02zm-5.5 10.64l-1.87 3.53.89.47 1.87-3.53-.89-.47zm9.09-17.79l.9.44 1.78-3.58-.9-.45c-.61 1.21-1.2 2.41-1.8 3.64l.02-.05zm7.08-14.36l.9.44c.59-1.21 1.18-2.4 1.76-3.6l-.9-.44-1.78 3.62.02-.02zm-3.53 7.18l.9.45c.59-1.2 1.18-2.4 1.76-3.6l-.89-.44-1.77 3.59zm29.69-56.77l.85.54c.71-1.15 1.43-2.26 2.15-3.36l-.83-.55c-.73 1.12-1.45 2.25-2.17 3.37zm89.41-37.78l.25 1c1.29-.33 2.58-.7 3.87-1.1l-.3-1c-1.27.43-2.55.8-3.82 1.12v-.02zm-7.77 1.62l.16 1c1.31-.21 2.63-.45 4-.73l-.2-1c-1.32.31-2.66.54-3.96.75v-.02zm15.35-4l.34.94c1.24-.46 2.49-1 3.73-1.5l-.39-.92c-1.23.56-2.46 1.06-3.68 1.51v-.03zm17.49-9.23c-1.1.77-2.2 1.5-3.3 2.2l.53.84c1.11-.7 2.23-1.44 3.34-2.22l-.57-.82zm-10.2 6.12l.45.89a67.64 67.64 0 003.55-1.88l-.49-.87c-1.19.66-2.36 1.27-3.51 1.86zm13.41-8.44l.62.79c1-.81 2.08-1.65 3.12-2.53l-.65-.76c-1.05.87-2.08 1.7-3.11 2.5h.02zm-103.27 32.45l.73.68c.92-1 1.85-1.92 2.78-2.83l-.69-.72c-.96.92-1.91 1.87-2.84 2.87h.02zm63.3-16.33c-1.33.16-2.65.29-4 .4l.08 1c1.33-.1 2.66-.23 4-.39l-.12-1 .04-.01zm-47.44 4.11c-1.2.58-2.38 1.22-3.54 1.93l.52.85c1.13-.68 2.28-1.31 3.45-1.87l-.43-.9v-.01zm-10 6.65l.64.77c1-.87 2.06-1.69 3.11-2.45l-.59-.81c-1.16.78-2.16 1.61-3.23 2.49h.07zm13.76-8.2l.34.95c1.23-.441 2.48-.808 3.75-1.1l-.23-1c-1.33.316-2.64.71-3.93 1.18l.07-.03zm31.81-1.76v1c1.33 0 2.67-.08 4-.14v-1c-1.42.06-2.75.11-4.07.14h.07zm-8 0v1h4.01v-1h-.19c-1.34.04-2.61.03-3.87.01l.05-.01zm-16-.05l.11 1c1.25-.137 2.5-.204 3.76-.2h.14v-1h-.15a35.44 35.44 0 00-3.93.21l.07-.01zm8 .88c1.32 0 2.66.07 4 .09v-1c-1.34 0-2.67-.06-4-.09v1zm-163.72 205.25l.56.84c1.11-.747 2.21-1.507 3.3-2.28l-.58-.82c-1.08.77-2.13 1.53-3.28 2.26zm-51.56 19.77l.15 1c1.33-.193 2.67-.403 4-.63l-.18-1c-1.33.23-2.64.44-3.97.63zm-7.91.89l.08 1c1.34-.11 2.68-.24 4-.39l-.12-1c-1.34.15-2.63.28-3.96.44v-.05zm121.37-92.69l.87.5 2-3.48-.88-.49c-.66 1.21-1.32 2.32-1.99 3.47zm-137.32 93.88l.11 1c1.31-.16 2.63-.29 4-.41l-.09-1c-1.38.11-2.71.27-4.02.41zm10.34-.84l-2.36.13.06 1 2.34-.12c.55 0 1.1 0 1.65-.08l-.06-1-1.63.07zm36.69-6.83l.33.95c1.27-.44 2.52-.9 3.76-1.37l-.35-.94c-1.2.48-2.48.89-3.74 1.36zm-7.59 2.36l.26 1c1.3-.36 2.58-.74 3.85-1.13l-.3-.95c-1.26.373-2.53.733-3.81 1.08zm-7.74 1.86l.21 1c1.31-.27 2.62-.56 3.91-.87l-.24-1c-1.28.31-2.57.6-3.88.87zm-90.4 27.31l.61.79c1.05-.81 2.11-1.6 3.19-2.37l-.58-.81c-1.09.79-2.16 1.58-3.22 2.39zm13.31-8.92l.5.86c1.14-.66 2.3-1.31 3.48-1.93l-.47-.89c-1.19.65-2.36 1.3-3.55 1.97l.04-.01zm-6.8 4.24l.56.83c1.09-.74 2.2-1.46 3.33-2.16l-.53-.85c-1.14.72-2.25 1.44-3.36 2.19v-.01zm106.64-29.7l.39.92c1.24-.52 2.46-1.06 3.67-1.62l-.42-.91c-1.2.56-2.41 1.1-3.64 1.62v-.01zm-66.31 12.5c-1.31.28-2.61.59-3.9.92l.25 1c1.27-.33 2.56-.63 3.87-.91l-.22-1v-.01zm-11.6 3.15l.31 1c1.25-.41 2.52-.8 3.8-1.18l-.28-.95c-1.29.33-2.57.72-3.8 1.14l-.03-.01zm-14.85 6l.44.89c1.19-.58 2.39-1.14 3.6-1.68l-.41-.91c-1.22.58-2.43 1.15-3.63 1.74v-.04zm7.32-3.28l.38.93c1.22-.5 2.45-1 3.7-1.43l-.34-.94c-1.26.5-2.51.98-3.74 1.45v-.01zm27-7.35c-1.34.2-2.65.42-4 .66l.18 1c1.3-.24 2.6-.46 3.92-.65l-.14-1 .04-.01zm124.08-67.45l.81.58c.78-1.09 1.54-2.18 2.31-3.28l-.83-.57c-.74 1.14-1.5 2.23-2.27 3.31l-.02-.04zm-4.75 6.42l.79.61c.81-1.06 1.62-2.13 2.41-3.21l-.8-.59c-.77 1.11-1.57 2.17-2.38 3.23l-.02-.04zm13.63-19.69l.84.54c.72-1.13 1.43-2.27 2.14-3.41l-.85-.52c-.65 1.18-1.36 2.32-2.07 3.47l-.06-.08zm4.22-6.81l.86.52c.69-1.15 1.37-2.3 2-3.45l-.86-.51c-.57 1.2-1.25 2.33-1.94 3.49l-.06-.05zm-22.85 32.74l.77.64c.85-1.033 1.69-2.073 2.52-3.12l-.78-.62c-.77 1.09-1.61 2.13-2.45 3.15l-.06-.05zm14.25-19.24l.84.56c.74-1.11 1.48-2.22 2.21-3.34l-.84-.55c-.67 1.17-1.4 2.28-2.15 3.38l-.06-.05zm-189.5 102.47l.65.76c1-.87 2-1.73 3-2.56l-.64-.78c-1.02.853-2.02 1.713-3.01 2.58zm146.82-55.4l.6.79c1.07-.8 2.12-1.62 3.16-2.45l-.63-.78c-1.03.83-2.07 1.64-3.13 2.44zm-20.23 12.62l.45.89c1.19-.6 2.38-1.22 3.55-1.85l-.47-.88c-1.17.63-2.34 1.24-3.53 1.84zm7-3.79l.5.87c1.16-.68 2.3-1.37 3.43-2.08l-.53-.85c-1.12.7-2.26 1.39-3.4 2.06zm36.53-30.51l.75.67c.89-1 1.76-2 2.63-3l-.76-.65c-.86.98-1.74 1.98-2.62 2.98zm-5.44 5.86l.72.69c.93-1 1.85-1.93 2.77-2.92l-.73-.68c-.91.953-1.83 1.91-2.76 2.87v.04zm-5.7 5.6l.68.73c1-.92 1.94-1.85 2.9-2.78l-.7-.72c-.95.9-1.91 1.82-2.88 2.73v.04zm-6 5.3l.65.76c1-.86 2-1.74 3-2.63l-.67-.74c-.92.85-1.92 1.71-2.94 2.57l-.04.04zM716.43 771.08h4v-1h-4v1zM208.93 419c.82 1.06 1.65 2.11 2.48 3.15l.78-.62c-.83-1-1.65-2.09-2.46-3.14l-.8.61zm-4.78-6.42a380.1 380.1 0 002.36 3.22l.8-.6c-.79-1.06-1.57-2.13-2.35-3.2l-.81.58zM231.1 442l-.67.73c1 .91 2 1.81 3 2.69l.66-.75c-1.02-.86-2.01-1.75-2.99-2.67zm-11.92-10.7c.9 1 1.8 2 2.72 2.95l.73-.68a144.583 144.583 0 01-2.7-2.94l-.75.67zm-5.24-6.07c.85 1 1.72 2.05 2.59 3.06l.76-.65c-.87-1-1.73-2-2.58-3.05l-.77.64zm10.73 11.91c.94 1 1.89 1.9 2.85 2.83l.69-.71a144.191 144.191 0 01-2.82-2.82l-.72.7zm-29.5-37.83l2.18 3.36.84-.55c-.73-1.11-1.46-2.23-2.17-3.35l-.85.54zm4.41 6.69c.74 1.1 1.5 2.2 2.26 3.29l.82-.57c-.76-1.09-1.51-2.18-2.26-3.28l-.82.56zm-28-48.62c.6 1.19 1.21 2.38 1.82 3.57l.89-.46c-.62-1.19-1.22-2.37-1.83-3.56l-.88.45zm-3.58-7.13c.6 1.19 1.19 2.38 1.8 3.58l.89-.45-1.79-3.58-.9.45zm22.92 42.28c.7 1.14 1.4 2.28 2.11 3.41l.84-.53c-.7-1.13-1.4-2.26-2.09-3.4l-.86.52zm-15.65-28l1.86 3.54.88-.46-1.85-3.55-.89.47zm11.55 21.09c.68 1.16 1.35 2.31 2 3.46l.86-.51c-.69-1.14-1.36-2.3-2-3.45l-.86.5zm-7.81-14l1.91 3.52.88-.48c-.64-1.17-1.27-2.34-1.9-3.52l-.89.48zm3.85 7c.65 1.17 1.3 2.33 2 3.49l.87-.49c-.66-1.16-1.31-2.32-2-3.49l-.87.49zm134.54 99.86c1.33.09 2.66.2 4 .32l.09-1a158.473 158.473 0 00-4-.33l-.09 1.01zm-16-1.3c1.32.18 2.64.34 4 .48l.11-1c-1.33-.14-2.65-.3-3.95-.47l-.16.99zM285.71 474c1.28.35 2.58.67 3.88 1l.23-1c-1.3-.3-2.58-.62-3.86-1l-.25 1zm-49.26-26c1 .86 2.05 1.7 3.1 2.52l.62-.78c-1-.82-2.07-1.66-3.08-2.5l-.64.76zm72.94 30c1.32.1 2.66.19 4 .25l.05-1c-1.34-.06-2.66-.14-4-.25l-.05 1zm23.78 2.47c1.31.25 2.61.52 3.89.81l.22-1c-1.3-.3-2.6-.57-3.93-.82l-.18 1.01zm-7.86-1.25c1.32.17 2.64.36 3.94.56l.15-1c-1.31-.21-2.63-.4-4-.57l-.09 1.01zM164.46 343.07c.58 1.2 1.17 2.39 1.77 3.59l.89-.44c-.6-1.2-1.19-2.4-1.78-3.59l-.88.44zm129 132.78c1.31.26 2.62.5 3.95.73l.16-1c-1.31-.22-2.62-.46-3.91-.72l-.2.99zM242.72 453c1.07.8 2.15 1.58 3.25 2.35l.57-.82c-1.08-.76-2.16-1.54-3.22-2.33l-.6.8zM278 471.72c1.26.42 2.53.83 3.82 1.22l.29-1c-1.28-.39-2.54-.79-3.79-1.21l-.32.99zm-28.75-14.11c1.12.74 2.25 1.46 3.39 2.16l.52-.85c-1.13-.7-2.25-1.41-3.36-2.14l-.55.83zm21.24 11.29c1.23.51 2.47 1 3.73 1.47l.35-.94c-1.25-.47-2.48-.95-3.7-1.46l-.38.93zm-14.39-7.07c1.16.66 2.33 1.31 3.51 1.94l.47-.89a96.9 96.9 0 01-3.48-1.92l-.5.87zm7.08 3.77c1.2.58 2.4 1.15 3.63 1.71l.41-.92c-1.21-.54-2.41-1.11-3.6-1.69l-.44.9zM154.76 321.08l-.9.44 1.77 3.59.9-.44c-.59-1.21-1.18-2.4-1.77-3.59zM54.36 250c1.33.21 2.66.38 4 .52l.11-1c-1.31-.14-2.62-.32-3.94-.52l-.17 1zm-22.99-7c1.23.58 2.45 1.13 3.67 1.64l.38-.92c-1.2-.51-2.41-1-3.62-1.63l-.43.91zm7.41 3.09c1.28.46 2.55.87 3.82 1.25l.29-1c-1.25-.37-2.51-.78-3.77-1.23l-.34.98zm23.64 3.75l-.08 1c1.35.1 2.68.17 4 .23v-1c-1.27-.02-2.59-.07-3.92-.19v-.04zm26.4.08l-2.47.06v1l2.46-.06h1.52v-1h-1.51zm-15.19.29h-3.25v1h4.01v-1h-.76zm8.73-.13c-1.33 0-2.66.07-4 .09v1c1.34 0 2.68-.05 4-.09v-1zM.44 218c.87 1 1.74 2.05 2.61 3l.75-.67c-.87-1-1.73-2-2.59-3l-.77.67zm1438.9 7.47c-1 1-1.92 1.87-2.88 2.74l.68.74c.95-.88 1.91-1.79 2.86-2.73v-.08l-.66-.67zM94.41 250.29l-.14 1a33.03 33.03 0 013.84.77l.26-1a35.284 35.284 0 00-3.96-.77zm-70.09-11.11c1.16.71 2.32 1.39 3.48 2l.48-.88c-1.14-.62-2.29-1.28-3.43-2l-.53.88zM5.77 223.94c.94 1 1.88 1.94 2.82 2.85l.7-.71c-.94-.91-1.87-1.85-2.8-2.83l-.72.69zm11.93 10.71c1.08.82 2.17 1.6 3.26 2.35l.56-.83c-1.07-.73-2.15-1.51-3.22-2.32l-.6.8zm-6.19-5.11c1 .91 2 1.78 3 2.62l.64-.77c-1-.83-2-1.69-3-2.59l-.64.74zm35.21 17.93l-.24 1c1.31.32 2.62.61 3.92.87l.2-1c-1.29-.27-2.6-.55-3.88-.87zm99.91 59.78c.61 1.17 1.22 2.35 1.83 3.55l.89-.46c-.61-1.19-1.22-2.38-1.84-3.55l-.88.46zm3.65 7.11c.6 1.19 1.19 2.38 1.8 3.58l.89-.45-1.8-3.58-.89.45zm-7.41-14.17c.63 1.16 1.26 2.33 1.89 3.52l.89-.47c-.64-1.19-1.27-2.37-1.9-3.53l-.88.48zm-41-46.94c1.21.47 2.4 1 3.58 1.61l.45-.89a37.592 37.592 0 00-3.67-1.65l-.36.93zm59.1 82.64l1.76 3.59.9-.44-1.77-3.59-.89.44zm180 146.35c1.29.34 2.57.7 3.83 1.07l.29-1c-1.28-.38-2.56-.73-3.87-1.08l-.25 1.01zM157.4 328.7c.59 1.19 1.17 2.39 1.76 3.59l.9-.44-1.76-3.59-.9.44zM139 293.21c.66 1.14 1.32 2.3 2 3.48l.87-.49a108.7 108.7 0 00-2-3.49l-.87.5zm-23.87-31.65c1 .85 1.94 1.75 2.9 2.7l.7-.72c-1-1-2-1.87-2.94-2.74l-.66.76zm-6.29-4.75c1.09.69 2.17 1.45 3.23 2.25l.6-.8c-1.08-.82-2.18-1.58-3.29-2.29l-.54.84zm17 16.4c.8 1 1.6 2.09 2.39 3.19l.81-.59c-.8-1.1-1.6-2.17-2.41-3.21l-.79.61zm4.68 6.45c.74 1.08 1.48 2.19 2.21 3.32l.84-.54c-.74-1.14-1.48-2.25-2.22-3.35l-.83.57zm4.35 6.69c.69 1.12 1.38 2.26 2.07 3.41l.86-.51c-.69-1.16-1.39-2.3-2.08-3.43l-.85.53zm-14.13-19.23c.87 1 1.75 2 2.61 3l.77-.64c-.88-1.05-1.76-2.06-2.65-3l-.73.64zm467.68 504h4v-1h-4v1zm-54.53-8.25c1.14.71 2.29 1.38 3.47 2l.47-.88c-1.15-.62-2.29-1.28-3.41-2l-.53.88zm7.11 3.73c1.22.54 2.46 1 3.73 1.48l.33-.94a52.61 52.61 0 01-3.66-1.46l-.4.92zm-13-9.24l-.63.78c1 .85 2.11 1.67 3.19 2.44l.59-.81c-1.07-.77-2.15-1.57-3.15-2.41zm-6.57-4.63c1 1 1.92 1.89 2.9 2.78l.67-.74c-1-.88-1.92-1.8-2.86-2.74l-.71.7zm27.11 16.54c1.28.34 2.59.64 3.91.89l.19-1c-1.3-.24-2.58-.53-3.84-.87l-.26.98zm15.89 1.81h4v-1h-4v1zM516 746.78a84.02 84.02 0 002.64 3l.74-.67a104.31 104.31 0 01-2.61-3l-.77.67zm56.4 24.3h4v-1h-4v1zm-16-.33c1.31.14 2.65.24 4 .3v-1a47.441 47.441 0 01-3.93-.3l-.07 1zm-65-65.19l1.71 3.63.9-.43c-.57-1.2-1.13-2.4-1.7-3.62l-.91.42zm3.46 7.23c.6 1.21 1.2 2.41 1.8 3.59l.89-.46c-.6-1.18-1.2-2.37-1.79-3.57l-.9.44zm-9.93-21.89c.53 1.23 1.05 2.46 1.58 3.68l.91-.39-1.56-3.68-.93.39zm13.58 29c.64 1.19 1.28 2.37 1.92 3.53l.87-.49c-.64-1.15-1.27-2.32-1.9-3.51l-.89.47zm8.07 13.87c.73 1.14 1.47 2.25 2.21 3.35l.83-.56c-.74-1.09-1.47-2.2-2.2-3.33l-.84.54zm-4.16-6.77a310.856 310.856 0 002 3.45l.86-.52a78.51 78.51 0 01-2-3.43l-.86.5zm8.69 13.49c.79 1.09 1.59 2.17 2.4 3.21l.79-.61c-.8-1-1.6-2.1-2.38-3.19l-.81.59zm-23-42.18c.54 1.22 1.08 2.45 1.63 3.66l.91-.41c-.55-1.21-1.09-2.43-1.63-3.66l-.91.41zm172.31 72.82h4v-1h-4v1zm-8 0h4v-1h-4v1zm-72 0h4v-1h-4v1zm112 0h4v-1h-4v1zm-16 0h4v-1h-4v1zm-32 0h4v-1h-4v1zM348.54 484.51c1.26.43 2.51.87 3.74 1.33l.35-.93c-1.24-.47-2.5-.92-3.77-1.35l-.32.95zm319.89 286.57h4v-1h-4v1zm-72 0h4v-1h-4v1zm104 0h4v-1h-4v1zm-64 0h4v-1h-4v1zm-32 0h4v-1h-4v1zm24 0h4v-1h-4v1zm-16 0h4v-1h-4v1zm8 0h4v-1h-4v1zm64 0h4v-1h-4v1zM411 531.83c.8 1 1.6 2.12 2.39 3.2l.81-.6-2.41-3.21-.79.61zm4.71 6.44c.77 1.08 1.52 2.18 2.27 3.28l.83-.56a182.73 182.73 0 00-2.28-3.3l-.82.58zm-9.68-12.67c.84 1.02 1.68 2.05 2.52 3.09l.78-.63c-.84-1-1.68-2.08-2.54-3.1l-.76.64zm14.16 19.27c.73 1.11 1.45 2.24 2.16 3.36l.84-.53a193.3 193.3 0 00-2.16-3.37l-.84.54zm4.26 6.76c.69 1.13 1.37 2.28 2.05 3.42l.86-.5c-.68-1.16-1.36-2.3-2.06-3.44l-.85.52zm-23.67-32c.9 1 1.78 2 2.66 3l.75-.66c-.88-1-1.77-2-2.67-3l-.74.66zM433.29 565l-.88.47c.63 1.17 1.25 2.35 1.87 3.53l.89-.46c-.62-1.16-1.25-2.34-1.88-3.54zm2.82 7.55c.61 1.19 1.2 2.38 1.8 3.57l.89-.44c-.59-1.2-1.19-2.39-1.8-3.58l-.89.45zm-7.57-14.07c.66 1.15 1.31 2.31 2 3.48l.87-.48c-.64-1.17-1.3-2.34-2-3.5l-.87.5zm-65.33-67.9c1.18.59 2.36 1.2 3.52 1.83l.48-.87c-1.17-.64-2.36-1.26-3.56-1.86l-.44.9zm32.08 23.25c.94.93 1.88 1.88 2.8 2.83l.72-.69c-.93-1-1.87-1.91-2.82-2.85l-.7.71zM356 487.3c1.23.51 2.44 1 3.64 1.59l.36-.89a120.2 120.2 0 00-3.68-1.6l-.32.9zm14.21 7.1c1.14.68 2.27 1.37 3.39 2.08l.54-.85c-1.13-.71-2.27-1.41-3.42-2.09l-.51.86zm6.71 4.26c1.1.75 2.18 1.51 3.25 2.3l.59-.81c-1.08-.787-2.17-1.557-3.27-2.31l-.57.82zm13.2 9l-.66.75c1 .88 2 1.77 3 2.68l.68-.73c-1.04-.91-2.03-1.81-3.04-2.69l.02-.01zm-6.77-4.32c1.04.813 2.07 1.643 3.09 2.49l.64-.77c-1-.85-2.07-1.69-3.12-2.51l-.61.79zm78.28 127.91l1.44 3.72.93-.36-1.44-3.72-.93.36zm5.74 14.93l1.43 3.74.93-.36c-.47-1.24-.95-2.49-1.43-3.74l-.93.36zm2.86 7.47c.47 1.25 1 2.5 1.43 3.74l.93-.35-1.43-3.74-.93.35zm-5.72-14.95c.48 1.25.95 2.5 1.43 3.74l.93-.36c-.47-1.24-1-2.49-1.43-3.74l-.93.36zm14.4 37.35c.49 1.25 1 2.49 1.48 3.72l.93-.37c-.49-1.23-1-2.47-1.48-3.72l-.93.37zm3 7.44c.5 1.24 1 2.47 1.52 3.7l.92-.38c-.5-1.23-1-2.46-1.52-3.7l-.92.38zM476 668.61c.49 1.25 1 2.49 1.46 3.73l.93-.37c-.49-1.23-1-2.48-1.46-3.72l-.93.36zm-2.89-7.47l1.44 3.74.93-.36-1.48-3.74-.89.36zm-26.69-66.89c.54 1.22 1.08 2.44 1.61 3.66l.92-.4c-.53-1.22-1.07-2.44-1.61-3.66l-.92.4zm12.31 29.57c.49 1.24 1 2.48 1.46 3.72l.94-.37-1.47-3.72-.93.37zM443.08 587c.56 1.21 1.12 2.42 1.67 3.63l.91-.41c-.55-1.22-1.11-2.43-1.67-3.64l-.91.42zm-3.41-7.23c.58 1.2 1.15 2.4 1.72 3.61l.9-.43c-.57-1.21-1.14-2.41-1.72-3.61l-.9.43zm16.06 36.64c.5 1.24 1 2.48 1.49 3.72l.93-.37c-.49-1.24-1-2.48-1.49-3.72l-.93.37zm-5.22-15.19l-.92.39 1.56 3.69.92-.39-1.56-3.69zm2.18 7.77c.52 1.23 1 2.47 1.53 3.71l.93-.38-1.53-3.72-.93.39z" fill="#fff"/><path opacity=".1" d="M133 514.95c9.941 0 18-8.059 18-18s-8.059-18-18-18-18 8.059-18 18 8.059 18 18 18zm437.67-31.47c9.941 0 18-8.059 18-18s-8.059-18-18-18-18 8.059-18 18 8.059 18 18 18z" fill="#fff"/><path opacity=".1" d="M262.67 269.48c9.941 0 18-8.059 18-18s-8.059-18-18-18-18 8.059-18 18 8.059 18 18 18zm-38 580a8 8 0 100-16 8 8 0 000 16zm-76-648a8 8 0 100-16 8 8 0 000 16zM1170.5 343.32c7.73 0 14-6.268 14-14s-6.27-14-14-14-14 6.268-14 14 6.27 14 14 14zm214.5 476.5c7.73 0 14-6.268 14-14s-6.27-14-14-14-14 6.268-14 14 6.27 14 14 14z" fill="#6A6D89"/><path opacity=".1" d="M1121.67 183.48c8.28 0 15-6.716 15-15 0-8.284-6.72-15-15-15-8.28 0-15 6.716-15 15 0 8.284 6.72 15 15 15zM75 587.95a6 6 0 100-12 6 6 0 000 12zm552.5-65.63a6 6 0 100-12 6 6 0 000 12zM1053 680.95c3.31 0 6-2.686 6-6s-2.69-6-6-6-6 2.686-6 6 2.69 6 6 6zm307-43c3.31 0 6-2.686 6-6s-2.69-6-6-6-6 2.686-6 6 2.69 6 6 6z" fill="#fff"/><path fill-rule="evenodd" clip-rule="evenodd" d="M1359.12 825.24c-72.91-.328-79.42 47.248-225.33 48.585-164.835 1.51-142.668 62.898-249.335 62.569H563.5c-106.666.329-84.5-61.059-249.333-62.569-145.913-1.34-152.417-48.913-225.333-48.585-26.62.119-58.307.752-88.834-7.236V1800h1440V819.892c-28.02 5.995-56.56 5.457-80.88 5.348z" fill="#FAFAFC"/></g><defs><linearGradient id="paint0_linear" x1="58.98" y1="-68.57" x2="1377.54" y2="1065.58" gradientUnits="userSpaceOnUse"><stop stop-color="#15EDED"/><stop offset="1" stop-color="#029CF5"/></linearGradient><clipPath id="clip0"><path fill="#fff" d="M0 0h1440v933H0z"/></clipPath></defs></svg>