<svg width="0" height="0" class="hidden">
  <symbol xmlns="http://www.w3.org/2000/svg" viewBox="0 0 51.74 52.72" id="cart">
    <defs>
      <linearGradient id="a" x1="6.8" y1="15.45" x2="50.19" y2="15.45" gradientUnits="userSpaceOnUse">
        <stop offset="0" stop-color="#15eded"></stop>
        <stop offset="1" stop-color="#029cf5"></stop>
      </linearGradient>
    </defs>
    <title>cart</title>
    <path d="M42.78 25.09L50 4.48a2.44 2.44 0 0 0 .16-.83 1.11 1.11 0 0 0-.33-.86 1.53 1.53 0 0 0-.41-.24h-.33a2.33 2.33 0 0 0-.53-.06H9.83a3.06 3.06 0 0 0-3 3v21a3.05 3.05 0 0 0 2.83 2.01H38a5.71 5.71 0 0 0 4.78-3.41z" fill="url(#a)"></path>
    <path d="M16.47 42.07a5.33 5.33 0 1 0 5.32 5.33 5.32 5.32 0 0 0-5.32-5.33zm0 7a1.68 1.68 0 1 1 1.67-1.67 1.68 1.68 0 0 1-1.67 1.67zm21.25-7a5.33 5.33 0 1 0 5.33 5.32 5.32 5.32 0 0 0-5.33-5.32zm0 7a1.68 1.68 0 1 1 1.68-1.68 1.68 1.68 0 0 1-1.68 1.68zM50.26 1.33A5 5 0 0 0 47.72.12h-.2a5.38 5.38 0 0 0-.9-.08H1.83a1.83 1.83 0 1 0 0 3.65h4.05a6.3 6.3 0 0 0-.63 2.71v28.14a6.41 6.41 0 0 0 6.39 6.39H44.8a1.83 1.83 0 0 0 0-3.65H11.64a2.78 2.78 0 0 1-2.74-2.74v-4.2a6.39 6.39 0 0 0 2.59.55H37a8.68 8.68 0 0 0 7.8-5.52l4.52-12.85 2-5.77a5.82 5.82 0 0 0 .35-1.95 4.65 4.65 0 0 0-1.41-3.47zm-2.32 4.22l-6.54 18.6a5.18 5.18 0 0 1-4.4 3.09H11.49a2.76 2.76 0 0 1-2.59-1.89V6.4a2.77 2.77 0 0 1 2.73-2.74h35a2.52 2.52 0 0 1 .48.05h.3a1.17 1.17 0 0 1 .37.22 1 1 0 0 1 .3.78 2.24 2.24 0 0 1-.14.84z"
      fill="#233148"></path>
  </symbol>
  <symbol xmlns="http://www.w3.org/2000/svg" viewBox="0 0 54.49 52.02" id="msg">
    <defs>
      <linearGradient id="a" x1="1.85" y1="18.63" x2="52.64" y2="18.63" gradientUnits="userSpaceOnUse">
        <stop offset="0" stop-color="#15eded"></stop>
        <stop offset="1" stop-color="#029cf5"></stop>
      </linearGradient>
    </defs>
    <title>msg</title>
    <path d="M48 35.4H6.47a4.64 4.64 0 0 1-4.24-2.79 4.58 4.58 0 0 1-.38-1.83V6.46a4.62 4.62 0 0 1 4.61-4.61H48a4.62 4.62 0 0 1 4.62 4.61v24.32A4.62 4.62 0 0 1 48 35.4z" fill="url(#a)"></path>
    <path d="M48 0H6.47A6.48 6.48 0 0 0 0 6.46v24.32a6.48 6.48 0 0 0 3.92 5.95v10.91a5.2 5.2 0 0 0 .79 2.92A3.27 3.27 0 0 0 7.37 52h.07a4.86 4.86 0 0 0 3.07-1.26L23.3 40.29c1.06-.87 2.65-2 4.2-3H48a6.49 6.49 0 0 0 6.47-6.47V6.46A6.48 6.48 0 0 0 48 0zM21 37.44L8.18 47.9a3.16 3.16 0 0 1-.5.34 2.85 2.85 0 0 1-.06-.6V37.25H21.2zm29.8-6.66a2.81 2.81 0 0 1-2.8 2.78H6.47a2.83 2.83 0 0 1-2.55-1.69 2.79 2.79 0 0 1-.22-1.09V6.46a2.8 2.8 0 0 1 2.77-2.77H48a2.81 2.81 0 0 1 2.8 2.77v24.32z"
      fill="#233148"></path>
  </symbol>
  <symbol xmlns="http://www.w3.org/2000/svg" viewBox="0 0 37.3 61.85" id="phone">
    <defs>
      <linearGradient id="a" x1="1.99" y1="28.79" x2="35.31" y2="28.79" gradientUnits="userSpaceOnUse">
        <stop offset="0" stop-color="#15eded"></stop>
        <stop offset="1" stop-color="#029cf5"></stop>
      </linearGradient>
    </defs>
    <title>phone</title>
    <path d="M30.32 49.62H7a5 5 0 0 1-5-5V12.94A5 5 0 0 1 7 8h23.32a5 5 0 0 1 5 5v31.7a5 5 0 0 1-5 5z" fill="url(#a)"></path>
    <path d="M30.32 0H7a7 7 0 0 0-7 7v47.87a7 7 0 0 0 7 7h23.32a7 7 0 0 0 7-7V7a7 7 0 0 0-7-7zM7 4h23.32a3 3 0 0 1 3 2.64 7 7 0 0 0-3-.67H7a7 7 0 0 0-3 .67A3 3 0 0 1 7 4zm26.31 50.87a3 3 0 0 1-3 3H7a3 3 0 0 1-3-3v-3.94a6.94 6.94 0 0 0 3 .68h23.32a6.94 6.94 0 0 0 3-.68zm0-10.23a3 3 0 0 1-3 3H7a3 3 0 0 1-3-3v-31.7a3 3 0 0 1 3-3h23.32a3 3 0 0 1 3 3zm-10.79 8h-7.74a1 1 0 0 0-1 1v2a1 1 0 0 0 1 1h7.74a1 1 0 0 0 1-1v-2a1 1 0 0 0-1-1.01z"
      fill="#233148"></path>
  </symbol>
  <symbol xmlns="http://www.w3.org/2000/svg" viewBox="0 0 48.11 58.91" id="roller">
    <defs>
      <linearGradient id="a" x1="1.85" y1="9.14" x2="37.96" y2="9.14" gradientUnits="userSpaceOnUse">
        <stop offset="0" stop-color="#15eded"></stop>
        <stop offset="1" stop-color="#029cf5"></stop>
      </linearGradient>
    </defs>
    <title>roller</title>
    <path d="M33.33 16.43H6.48a4.64 4.64 0 0 1-4.63-4.62V6.48a4.65 4.65 0 0 1 4.63-4.63h26.85A4.65 4.65 0 0 1 38 6.48v5.32a4.64 4.64 0 0 1-4.63 4.63z" fill="url(#a)"></path>
    <path d="M42 6.17h-2.21A6.48 6.48 0 0 0 33.33 0H6.48A6.49 6.49 0 0 0 0 6.48v5.32a6.5 6.5 0 0 0 6.48 6.49h26.85a6.5 6.5 0 0 0 6.48-6.49V9.88H42a2.49 2.49 0 0 1 2.37 2.54 5.64 5.64 0 0 1-3.13 4.49l-17.82 7.52A9.32 9.32 0 0 0 18 32.56v2a6.48 6.48 0 0 0-4.83 6.25v11.62a6.49 6.49 0 0 0 6.48 6.47h.47a6.5 6.5 0 0 0 6.48-6.48V40.85a6.49 6.49 0 0 0-4.9-6.27v-2a5.8 5.8 0 0 1 3.13-4.72l17.86-7.52a9.15 9.15 0 0 0 5.4-7.9A6.19 6.19 0 0 0 42 6.17zm-5.89 5.63a2.8 2.8 0 0 1-2.78 2.78H6.48A2.81 2.81 0 0 1 3.7 11.8V6.48A2.82 2.82 0 0 1 6.48 3.7h26.85a2.81 2.81 0 0 1 2.78 2.78v5.32zm-13.2 29.05v11.58a2.8 2.8 0 0 1-2.77 2.77h-.47a2.8 2.8 0 0 1-2.77-2.77V40.85a2.81 2.81 0 0 1 2.77-2.78h.47a2.8 2.8 0 0 1 2.77 2.78z"
      fill="#233148"></path>
  </symbol>
</svg>